<svg width="50" height="50" viewBox="0 0 50 50" fill="none" xmlns="http://www.w3.org/2000/svg">
<g clip-path="url(#clip0)">
<path d="M30.1527 15.8717L30.1534 15.8873L30.155 15.9026L30.155 15.9027L30.1551 15.903L30.1551 15.9031L30.1554 15.9064L30.157 15.9221C30.1584 15.9367 30.1605 15.9592 30.163 15.9891C30.168 16.0489 30.1747 16.1383 30.181 16.2532C30.1937 16.483 30.2049 16.8136 30.1984 17.2113C30.1855 18.0098 30.1018 19.064 29.8245 20.1116C29.5465 21.1621 29.0828 22.1721 28.3339 22.9193C27.5977 23.6538 26.5543 24.1668 25.0392 24.1839H25.0392H25.0391H25.0389H25.0388H25.0387H25.0386H25.0385H25.0384H25.0383H25.0381H25.038H25.0379H25.0378H25.0377H25.0376H25.0375H25.0374H25.0373H25.0371H25.037H25.0369H25.0368H25.0367H25.0366H25.0365H25.0364H25.0363H25.0362H25.036H25.0359H25.0358H25.0357H25.0356H25.0355H25.0354H25.0353H25.0352H25.0351H25.035H25.0349H25.0348H25.0347H25.0345H25.0344H25.0343H25.0342H25.0341H25.034H25.0339H25.0338H25.0337H25.0336H25.0335H25.0334H25.0333H25.0332H25.0331H25.033H25.0329H25.0328H25.0327H25.0326H25.0325H25.0324H25.0323H25.0322H25.0321H25.032H25.0319H25.0318H25.0317H25.0316H25.0315H25.0314H25.0313H25.0312H25.0311H25.031H25.0309H25.0308H25.0307H25.0306H25.0305H25.0304H25.0303H25.0302H25.0301H25.03H25.0299H25.0298H25.0297H25.0296H25.0295H25.0294H25.0293H25.0292H25.0291H25.029H25.0289H25.0289H25.0288H25.0287H25.0286H25.0285H25.0284H25.0283H25.0282H25.0281H25.028H25.0279H25.0278H25.0277H25.0276H25.0275H25.0275H25.0274H25.0273H25.0272H25.0271H25.027H25.0269H25.0268H25.0267H25.0266H25.0265H25.0265H25.0264H25.0263H25.0262H25.0261H25.026H25.0259H25.0258H25.0257H25.0256H25.0256H25.0255H25.0254H25.0253H25.0252H25.0251H25.025H25.0249H25.0249H25.0248H25.0247H25.0246H25.0245H25.0244H25.0243H25.0242H25.0242H25.0241H25.024H25.0239H25.0238H25.0237H25.0237H25.0236H25.0235H25.0234H25.0233H25.0232H25.0231H25.0231H25.023H25.0229H25.0228H25.0227H25.0226H25.0226H25.0225H25.0224H25.0223H25.0222H25.0221H25.0221H25.022H25.0219H25.0218H25.0217H25.0217H25.0216H25.0215H25.0214H25.0213H25.0212H25.0212H25.0211H25.021H25.0209H25.0208H25.0208H25.0207H25.0206H25.0205H25.0204H25.0204H25.0203H25.0202H25.0201H25.02H25.02H25.0199H25.0198H25.0197H25.0197H25.0196H25.0195H25.0194H25.0193H25.0193H25.0192H25.0191H25.019H25.019H25.0189H25.0188H25.0187H25.0186H25.0186H25.0185H25.0184H25.0183H25.0183H25.0182H25.0181H25.018H25.018H25.0179H25.0178H25.0177H25.0177H25.0176H25.0175H25.0174H25.0174H25.0173H25.0172H25.0171H25.0171H25.017H25.0169H25.0168H25.0168H25.0167H25.0166H25.0166H25.0165H25.0164H25.0163H25.0163H25.0162H25.0161H25.016H25.016H25.0159H25.0158H25.0158H25.0157H25.0156H25.0155H25.0155H25.0154H25.0153H25.0153H25.0152H25.0151H25.015H25.015H25.0149H25.0148H25.0148H25.0147H25.0146H25.0145H25.0145H25.0144H25.0143H25.0143H25.0142H25.0141H25.0141H25.014H25.0139H25.0138H25.0138H25.0137H25.0136H25.0136H25.0135H25.0134H25.0134H25.0133H25.0132H25.0132H25.0131H25.013H25.0129H25.0129H25.0128H25.0127H25.0127H25.0126H25.0125H25.0125H25.0124H25.0123H25.0123H25.0122H25.0121H25.0121H25.012H25.0119H25.0119H25.0118H25.0117H25.0117H25.0116H25.0115H25.0115H25.0114H25.0113H25.0113H25.0112H25.0111H25.0111H25.011H25.0109H25.0109H25.0108H25.0107H25.0107H25.0106H25.0105H25.0105H25.0104H25.0103H25.0103H25.0102H25.0102H25.0101H25.01H25.01H25.0099H25.0098H25.0098H25.0097H25.0096H25.0096H25.0095H25.0094H25.0094H25.0093H25.0092H25.0092H25.0091H25.0091H25.009H25.0089H25.0089H25.0088H25.0087H25.0087H25.0086H25.0085H25.0085H25.0084H25.0084H25.0083H25.0082H25.0082H25.0081H25.008H25.008H25.0079H25.0079H25.0078H25.0077H25.0077H25.0076H25.0075H25.0075H25.0074H25.0074H25.0073H25.0072H25.0072H25.0071H25.007H25.007H25.0069H25.0069H25.0068H25.0067H25.0067H25.0066H25.0065H25.0065H25.0064H25.0064H25.0063H25.0062H25.0062H25.0061H25.0061H25.006H25.0059H25.0059H25.0058H25.0057H25.0057H25.0056H25.0056H25.0055H25.0054H25.0054H25.0053H25.0053H25.0052H25.0051H25.0051H25.005H25.0049H25.0049H25.0048H25.0048H25.0047H25.0046H25.0046H25.0045H25.0045H25.0044H25.0043H25.0043H25.0042H25.0042H25.0041H25.004H25.004H25.0039H25.0039H25.0038H25.0037H25.0037H25.0036H25.0036H25.0035H25.0034H25.0034H25.0033H25.0033H25.0032H25.0031H25.0031H25.003H25.003H25.0029H25.0028H25.0028H25.0027H25.0026H25.0026H25.0025H25.0025H25.0024H25.0023H25.0023H25.0022H25.0022H25.0021H25.002H25.002H25.0019H25.0019H25.0018H25.0017H25.0017H25.0016H25.0016H25.0015H25.0014H25.0014H25.0013H25.0013H25.0012H25.0011H25.0011H25.001H25.0009H25.0008H25.0007H25.0006H25.0004H25.0003H25.0002H25.0001H25H24.9998H24.9997H24.9996H24.9995H24.9994H24.9993H24.9991H24.999H24.9989H24.9988H24.9987H24.9986H24.9984H24.9983H24.9982H24.9981H24.998H24.9979H24.9978H24.9976H24.9975H24.9974H24.9973H24.9972H24.9971H24.997H24.9969H24.9967H24.9966H24.9965H24.9964H24.9963H24.9962H24.9961H24.996H24.9959H24.9957H24.9956H24.9955H24.9954H24.9953H24.9952H24.9951H24.995H24.9949H24.9948H24.9947H24.9946H24.9944H24.9943H24.9942H24.9941H24.994H24.9939H24.9938H24.9937H24.9936H24.9935H24.9934H24.9933H24.9932H24.9931H24.993H24.9929H24.9928H24.9927H24.9926H24.9925H24.9923H24.9922H24.9921H24.992H24.9919H24.9918H24.9917H24.9916H24.9915H24.9914H24.9913H24.9912H24.9911H24.991H24.9909H24.9908H24.9907H24.9906H24.9905H24.9904H24.9903H24.9902H24.9901H24.99H24.9899H24.9898H24.9897H24.9896H24.9895H24.9894H24.9893H24.9892H24.9891H24.9891H24.989H24.9889H24.9888H24.9887H24.9886H24.9885H24.9884H24.9883H24.9882H24.9881H24.988H24.9879H24.9878H24.9877H24.9876H24.9875H24.9874H24.9873H24.9872H24.9872H24.9871H24.987H24.9869H24.9868H24.9867H24.9866H24.9865H24.9864H24.9863H24.9862H24.9861H24.986H24.986H24.9859H24.9858H24.9857H24.9856H24.9855H24.9854H24.9853H24.9852H24.9851H24.9851H24.985H24.9849H24.9848H24.9847H24.9846H24.9845H24.9844H24.9843H24.9843H24.9842H24.9841H24.984H24.9839H24.9838H24.9837H24.9836H24.9836H24.9835H24.9834H24.9833H24.9832H24.9831H24.983H24.983H24.9829H24.9828H24.9827H24.9826H24.9825H24.9824H24.9824H24.9823H24.9822H24.9821H24.982H24.9819H24.9819H24.9818H24.9817H24.9816H24.9815H24.9814H24.9814H24.9813H24.9812H24.9811H24.981H24.9809H24.9809H24.9808H24.9807H24.9806H24.9805H24.9805H24.9804H24.9803H24.9802H24.9801H24.9801H24.98H24.9799H24.9798H24.9797H24.9797H24.9796H24.9795H24.9794H24.9793H24.9793H24.9792H24.9791H24.979H24.9789H24.9789H24.9788H24.9787H24.9786H24.9785H24.9785H24.9784H24.9783H24.9782H24.9782H24.9781H24.978H24.9779H24.9779H24.9778H24.9777H24.9776H24.9775H24.9775H24.9774H24.9773H24.9772H24.9772H24.9771H24.977H24.9769H24.9769H24.9768H24.9767H24.9766H24.9766H24.9765H24.9764H24.9763H24.9763H24.9762H24.9761H24.976H24.976H24.9759H24.9758H24.9757H24.9757H24.9756H24.9755H24.9755H24.9754H24.9753H24.9752H24.9752H24.9751H24.975H24.9749H24.9749H24.9748H24.9747H24.9747H24.9746H24.9745H24.9744H24.9744H24.9743H24.9742H24.9742H24.9741H24.974H24.9739H24.9739H24.9738H24.9737H24.9737H24.9736H24.9735H24.9735H24.9734H24.9733H24.9732H24.9732H24.9731H24.973H24.973H24.9729H24.9728H24.9728H24.9727H24.9726H24.9725H24.9725H24.9724H24.9723H24.9723H24.9722H24.9721H24.9721H24.972H24.9719H24.9719H24.9718H24.9717H24.9717H24.9716H24.9715H24.9715H24.9714H24.9713H24.9713H24.9712H24.9711H24.9711H24.971H24.9709H24.9709H24.9708H24.9707H24.9707H24.9706H24.9705H24.9705H24.9704H24.9703H24.9703H24.9702H24.9701H24.9701H24.97H24.9699H24.9699H24.9698H24.9697H24.9697H24.9696H24.9695H24.9695H24.9694H24.9693H24.9693H24.9692H24.9691H24.9691H24.969H24.9689H24.9689H24.9688H24.9688H24.9687H24.9686H24.9686H24.9685H24.9684H24.9684H24.9683H24.9682H24.9682H24.9681H24.968H24.968H24.9679H24.9679H24.9678H24.9677H24.9677H24.9676H24.9675H24.9675H24.9674H24.9673H24.9673H24.9672H24.9672H24.9671H24.967H24.967H24.9669H24.9668H24.9668H24.9667H24.9667H24.9666H24.9665H24.9665H24.9664H24.9663H24.9663H24.9662H24.9662H24.9661H24.966H24.966H24.9659H24.9658H24.9658H24.9657H24.9657H24.9656H24.9655H24.9655H24.9654H24.9653H24.9653H24.9652H24.9652H24.9651H24.965H24.965H24.9649H24.9649H24.9648H24.9647H24.9647H24.9646H24.9645H24.9645H24.9644H24.9644H24.9643H24.9642H24.9642H24.9641H24.9641H24.964H24.9639H24.9639H24.9638H24.9638H24.9637H24.9636H24.9636H24.9635H24.9635H24.9634H24.9633H24.9633H24.9632H24.9631H24.9631H24.963H24.963H24.9629H24.9628H24.9628H24.9627H24.9627H24.9626H24.9625H24.9625H24.9625C23.4471 24.1692 22.4039 23.6579 21.6679 22.9248C20.9192 22.1789 20.4555 21.1697 20.1775 20.1193C19.6628 18.1748 19.8173 16.259 19.8459 15.9051C19.8469 15.8921 19.8478 15.8812 19.8485 15.8725L19.8494 15.8725C19.9796 13.1138 21.1776 11.8231 22.3375 11.1925C23.5383 10.5396 24.7743 10.5556 24.9798 10.5643L25.001 10.5652L25.0223 10.5643C25.2278 10.5556 26.4664 10.5397 27.6686 11.1926C28.8295 11.8232 30.0273 13.1136 30.1527 15.8717Z" stroke="white"/>
<path d="M44.3921 20.5914L44.3928 20.6068L44.3944 20.6216L44.3944 20.6218L44.3944 20.6219L44.3944 20.622L44.3946 20.6242L44.3958 20.6363C44.3969 20.6476 44.3985 20.6653 44.4005 20.689C44.4044 20.7363 44.4096 20.8073 44.4145 20.8988C44.4244 21.0818 44.4331 21.3456 44.4276 21.663C44.4167 22.3009 44.349 23.1409 44.128 23.9736C43.9063 24.8092 43.5392 25.6036 42.9535 26.1877C42.3804 26.7591 41.5669 27.1614 40.3744 27.1735H40.3743H40.3742H40.3742H40.3741H40.3741H40.374H40.3739H40.3739H40.3738H40.3738H40.3737H40.3736H40.3736H40.3735H40.3735H40.3734H40.3733H40.3733H40.3732H40.3732H40.3731H40.373H40.373H40.3729H40.3729H40.3728H40.3727H40.3727H40.3726H40.3726H40.3725H40.3724H40.3724H40.3723H40.3723H40.3722H40.3721H40.3721H40.372H40.372H40.3719H40.3718H40.3718H40.3717H40.3717H40.3716H40.3715H40.3715H40.3714H40.3714H40.3713H40.3712H40.3712H40.3711H40.3711H40.371H40.3709H40.3709H40.3708H40.3708H40.3707H40.3706H40.3706H40.3705H40.3705H40.3704H40.3703H40.3703H40.3702H40.3702H40.3701H40.37H40.37H40.3699H40.3699H40.3698H40.3697H40.3697H40.3696H40.3696H40.3695H40.3694H40.3694H40.3693H40.3693H40.3692H40.3691H40.3691H40.369H40.369H40.3689H40.3688H40.3688H40.3687H40.3687H40.3686H40.3685H40.3685H40.3684H40.3684H40.3683H40.3682H40.3682H40.3681H40.3681H40.368H40.3679H40.3679H40.3678H40.3678H40.3677H40.3676H40.3676H40.3675H40.3675H40.3674H40.3673H40.3673H40.3672H40.3672H40.3671H40.367H40.367H40.3669H40.3669H40.3668H40.3667H40.3667H40.3666H40.3666H40.3665H40.3664H40.3664H40.3663H40.3663H40.3662H40.3661H40.3661H40.366H40.366H40.3659H40.3658H40.3658H40.3657H40.3657H40.3656H40.3655H40.3655H40.3654H40.3654H40.3653H40.3652H40.3652H40.3651H40.3651H40.365H40.3649H40.3649H40.3648H40.3648H40.3647H40.3646H40.3646H40.3645H40.3645H40.3644H40.3643H40.3643H40.3642H40.3642H40.3641H40.364H40.364H40.3639H40.3639H40.3638H40.3637H40.3637H40.3636H40.3636H40.3635H40.3635H40.3634H40.3633H40.3633H40.3632H40.3632H40.3631H40.363H40.363H40.3629H40.3629H40.3628H40.3627H40.3627H40.3626H40.3626H40.3625H40.3624H40.3624H40.3623H40.3623H40.3622H40.3621H40.3621H40.362H40.362H40.3619H40.3618H40.3618H40.3617H40.3617H40.3616H40.3615H40.3615H40.3614H40.3614H40.3613H40.3612H40.3612H40.3611H40.3611H40.361H40.3609H40.3609H40.3608H40.3608H40.3607H40.3606H40.3606H40.3605H40.3605H40.3604H40.3603H40.3603H40.3602H40.3602H40.3601H40.36H40.36H40.3599H40.3599H40.3598H40.3597H40.3597H40.3596H40.3596H40.3595H40.3594H40.3594H40.3593H40.3593H40.3592H40.3591H40.3591H40.359H40.359H40.3589H40.3588H40.3588H40.3587H40.3587H40.3586H40.3585H40.3585H40.3584H40.3584H40.3583H40.3582H40.3582H40.3581H40.3581H40.358H40.3579H40.3579H40.3578H40.3578H40.3577H40.3576H40.3576H40.3575H40.3575H40.3574H40.3573H40.3573H40.3572H40.3572H40.3571H40.357H40.357H40.3569H40.3569H40.3568H40.3567H40.3567H40.3566H40.3566H40.3565H40.3564H40.3564H40.3563H40.3563H40.3562H40.3561H40.3561H40.356H40.356H40.3559H40.3558H40.3558H40.3557H40.3557H40.3556H40.3555H40.3555H40.3554H40.3554H40.3553H40.3552H40.3552H40.3551H40.3551H40.355H40.3549H40.3549H40.3548H40.3548H40.3547H40.3546H40.3546H40.3545H40.3545H40.3544H40.3543H40.3543H40.3542H40.3542H40.3541H40.354H40.354H40.3539H40.3539H40.3538H40.3537H40.3537H40.3536H40.3536H40.3535H40.3534H40.3534H40.3533H40.3533H40.3532H40.3531H40.3531H40.353H40.353H40.3529H40.3528H40.3528H40.3527H40.3527H40.3526H40.3525H40.3525H40.3524H40.3524H40.3523H40.3522H40.3522H40.3521H40.3521H40.352H40.3519H40.3519H40.3518H40.3518H40.3517H40.3516H40.3516H40.3515H40.3515H40.3514H40.3513H40.3513H40.3512H40.3512H40.3511H40.351H40.351H40.3509H40.3509H40.3508H40.3507H40.3507H40.3506H40.3506H40.3505H40.3504H40.3504H40.3503H40.3503H40.3502H40.3501H40.3501H40.35H40.35H40.3499H40.3498H40.3498H40.3497H40.3497H40.3496H40.3495H40.3495H40.3494H40.3494H40.3493H40.3492H40.3492H40.3491H40.3491H40.349H40.3489H40.3489H40.3488H40.3488H40.3487H40.3486H40.3486H40.3485H40.3485H40.3484H40.3483H40.3483H40.3482H40.3482H40.3481H40.348H40.348H40.3479H40.3479H40.3478H40.3477H40.3477H40.3476H40.3476H40.3475H40.3474H40.3474H40.3473H40.3473H40.3472H40.3471H40.3471H40.347H40.347H40.3469H40.3468H40.3468H40.3467H40.3467H40.3466H40.3465H40.3465H40.3464H40.3464H40.3463H40.3462H40.3462H40.3461H40.3461H40.346H40.3459H40.3459H40.3458H40.3458H40.3457H40.3456H40.3456H40.3455H40.3455H40.3454H40.3453H40.3453H40.3452H40.3452H40.3451H40.345H40.345H40.3449H40.3449H40.3448H40.3447H40.3447H40.3446H40.3446H40.3445H40.3444H40.3444H40.3443H40.3443H40.3442H40.3441H40.3441H40.344H40.344H40.3439H40.3438H40.3438H40.3437H40.3437H40.3436H40.3435H40.3435H40.3434H40.3434H40.3433H40.3432H40.3432H40.3431H40.3431H40.343H40.3429H40.3429H40.3428H40.3428H40.3427H40.3426H40.3426H40.3425H40.3425H40.3424H40.3423H40.3423H40.3422H40.3422H40.3421H40.342H40.342H40.3419H40.3419H40.3418H40.3417H40.3417H40.3416H40.3416H40.3415H40.3414H40.3414H40.3413H40.3413H40.3412H40.3411H40.3411H40.341H40.341H40.3409H40.3408H40.3408H40.3407H40.3407H40.3406H40.3405H40.3405H40.3404H40.3404H40.3403H40.3402H40.3402H40.3401H40.3401H40.34H40.3399H40.3399H40.3398H40.3398H40.3397H40.3396H40.3396H40.3395H40.3395H40.3394H40.3393H40.3393H40.3392H40.3392H40.3391H40.339H40.339H40.3389H40.3389H40.3388H40.3387H40.3387H40.3386H40.3386H40.3385H40.3384H40.3384H40.3383H40.3383H40.3382H40.3381H40.3381H40.338H40.338H40.3379H40.3378H40.3378H40.3377H40.3377H40.3376H40.3375H40.3375H40.3374H40.3374H40.3373H40.3372H40.3372H40.3371H40.3371H40.337H40.3369H40.3369H40.3368H40.3368H40.3367H40.3366H40.3366H40.3365H40.3365H40.3364H40.3363H40.3363H40.3362H40.3362H40.3361H40.336H40.336H40.3359H40.3359H40.3358H40.3357H40.3357H40.3356H40.3356H40.3355H40.3354H40.3354H40.3353H40.3353H40.3352H40.3351H40.3351H40.335H40.335H40.3349H40.3348H40.3348H40.3347H40.3347H40.3346H40.3345H40.3345H40.3344H40.3344H40.3343H40.3342H40.3342H40.3341H40.3341H40.334H40.3339H40.3339H40.3338H40.3338H40.3337H40.3336H40.3336H40.3335H40.3335H40.3334H40.3333H40.3333H40.3332H40.3332H40.3331H40.333H40.333H40.3329H40.3329H40.3328H40.3327H40.3327H40.3326H40.3326H40.3325H40.3324H40.3324H40.3323H40.3323H40.3322H40.3321H40.3321H40.332H40.332H40.3319H40.3318H40.3318H40.3317H40.3317H40.3316H40.3315H40.3315H40.3314H40.3314H40.3313H40.3312H40.3312H40.3311H40.3311H40.331H40.3309H40.3309H40.3308H40.3308H40.3307H40.3306H40.3306H40.3305H40.3305H40.3304H40.3303H40.3303H40.3302H40.3302H40.3301H40.33H40.33H40.3299H40.3299H40.3298H40.3297H40.3297H40.3296H40.3296H40.3295H40.3294H40.3294H40.3293H40.3293H40.3292H40.3291H40.3291H40.329H40.329H40.3289H40.3288H40.3288H40.3287H40.3287H40.3286H40.3285H40.3285H40.3284H40.3284H40.3283H40.3282H40.3282H40.3281H40.3281H40.328H40.3279H40.3279H40.3278H40.3278H40.3277H40.3276H40.3276H40.3275H40.3275H40.3274H40.3273H40.3273H40.3272H40.3272H40.3271H40.327H40.327H40.3269H40.3269H40.3268H40.3267H40.3267H40.3266H40.3266H40.3265H40.3264H40.3264H40.3263H40.3263H40.3262H40.3261H40.3261H40.326H40.326H40.3259H40.3258H40.3258H40.3257H40.3257H40.3256H40.3255H40.3255H40.3254H40.3254H40.3253H40.3252H40.3252H40.3251H40.3251H40.325H40.3249H40.3249H40.3248H40.3248H40.3247H40.3246H40.3246H40.3245H40.3245H40.3244H40.3243H40.3243H40.3242H40.3242H40.3241H40.324H40.324H40.3239H40.3239H40.3238H40.3237H40.3237H40.3236H40.3236H40.3235H40.3234H40.3234H40.3233H40.3233H40.3232H40.3231H40.3231H40.323H40.323H40.3229H40.3228H40.3228H40.3227H40.3227H40.3226H40.3225H40.3225H40.3224H40.3224H40.3223H40.3222H40.3222H40.3221H40.3221H40.322H40.3219H40.3219H40.3218H40.3218H40.3217H40.3216H40.3216H40.3215H40.3215H40.3214H40.3213H40.3213H40.3212H40.3212H40.3211H40.321H40.321H40.3209H40.3209H40.3208H40.3207H40.3207H40.3206H40.3206H40.3205H40.3204H40.3204H40.3203H40.3203H40.3202H40.3201H40.3201H40.32H40.32H40.3199H40.3198H40.3198H40.3197H40.3197H40.3196H40.3195H40.3195H40.3194H40.3194H40.3193H40.3192H40.3192H40.3191H40.3191H40.319H40.3189H40.3189H40.3188H40.3188H40.3187H40.3186H40.3186H40.3185H40.3185H40.3184H40.3183H40.3183H40.3182H40.3182H40.3181H40.318H40.318H40.3179H40.3179H40.3178C39.1223 27.1614 38.3074 26.7594 37.7341 26.1888C37.1481 25.6056 36.7815 24.8124 36.5604 23.9777C36.1541 22.4433 36.2723 20.9361 36.2968 20.6247C36.2978 20.6114 36.2987 20.6003 36.2993 20.5914L36.3001 20.5914C36.3999 18.4063 37.3446 17.3972 38.2475 16.9049C39.1917 16.3901 40.1668 16.4018 40.3198 16.4099L40.3395 16.4109L40.3593 16.4104C40.5271 16.406 41.5017 16.3958 42.4452 16.909C43.3479 17.4001 44.2923 18.4066 44.3921 20.5914Z" stroke="white"/>
<path d="M49.499 39.4377H40.3358H36.9881H30.6921H24.9795H19.267H12.9914H9.62326H0.5V34.8156C0.520207 34.0824 0.600073 33.5258 0.825804 33.0477C1.04691 32.5794 1.43131 32.139 2.1487 31.6906L2.14927 31.6902C3.16369 31.0543 4.24213 30.4592 5.06954 30.022C5.41295 29.8406 5.71219 29.6868 5.94449 29.5691L7.60067 34.806L8.05246 36.2345L8.54913 34.8209L9.61383 31.7906L9.64373 31.7055L9.67364 31.7906L10.7383 34.8209L11.235 36.2345L11.6868 34.806L13.3435 29.5673C13.6165 29.7052 13.9821 29.8936 14.4026 30.12L14.6956 30.2778L14.9542 30.0684C15.1565 29.9046 15.3758 29.7427 15.6326 29.5809C16.8981 28.7863 18.2402 28.0427 19.2686 27.4967C19.7602 27.2357 20.179 27.0204 20.4817 26.8671L22.5781 33.5056L23.0289 34.9333L23.5265 33.5212L24.8573 29.7435L24.9438 29.4982L24.7925 29.2867C24.2288 28.4979 23.9936 27.9452 23.9255 27.5736C23.8614 27.2241 23.9465 27.0578 24.0266 26.9653C24.1263 26.8502 24.2954 26.7633 24.509 26.709C24.716 26.6564 24.9119 26.6478 25 26.6478H25.0102H25.0145C25.1116 26.6503 25.3054 26.6614 25.5093 26.7142C25.724 26.7699 25.8937 26.8573 25.9939 26.973C26.0743 27.0658 26.159 27.2315 26.0951 27.5791C26.027 27.9491 25.7921 28.4998 25.2284 29.286L25.0766 29.4978L25.1631 29.7435L26.494 33.5212L26.9915 34.9333L27.4424 33.5056L29.5388 26.8671C29.8415 27.0204 30.2602 27.2357 30.7519 27.4967C31.7803 28.0428 33.1226 28.7864 34.3881 29.5811L34.3919 29.5835C34.6354 29.7333 34.8532 29.894 35.056 30.0581L35.3135 30.2666L35.6059 30.1107C36.0187 29.8905 36.3776 29.7056 36.6468 29.5692L38.303 34.806L38.7548 36.2345L39.2514 34.8209L40.3161 31.7906L40.3461 31.7054L40.3758 31.7901L41.4405 34.8307L41.9365 36.2473L42.3891 34.8162L44.0453 29.5793C44.2776 29.697 44.5768 29.8508 44.9202 30.0323C45.7475 30.4694 46.8258 31.0644 47.8401 31.7002C48.5527 32.1486 48.9379 32.5894 49.1605 33.0587C49.3875 33.5373 49.4696 34.0944 49.4898 34.8263L49.499 39.4377ZM40.4409 31.3341L40.346 31.4669L40.2512 31.3341C39.8026 30.7067 39.6231 30.2769 39.5722 29.9989C39.5254 29.743 39.5893 29.6409 39.6313 29.5923C39.6928 29.5212 39.8064 29.4585 39.9681 29.4172C40.1233 29.3776 40.2711 29.371 40.3358 29.371H40.346H40.3563C40.4209 29.371 40.5687 29.3776 40.724 29.4172C40.8857 29.4585 40.9993 29.5212 41.0608 29.5923C41.1028 29.6409 41.1667 29.743 41.1198 29.9989C41.0689 30.2769 40.8894 30.7067 40.4409 31.3341ZM9.73861 31.3341L9.64373 31.4668L9.54886 31.3341C9.10034 30.7067 8.92083 30.2769 8.86995 29.9989C8.82311 29.743 8.88698 29.6409 8.92899 29.5923C8.9905 29.5212 9.1041 29.4585 9.2658 29.4172C9.42104 29.3776 9.56883 29.371 9.6335 29.371H9.64373H9.65397C9.71864 29.371 9.86643 29.3776 10.0217 29.4172C10.1834 29.4585 10.297 29.5212 10.3585 29.5923C10.4005 29.6409 10.4644 29.743 10.4175 29.9989C10.3666 30.2769 10.1871 30.7067 9.73861 31.3341Z" stroke="white"/>
<path d="M13.659 20.5914L13.6597 20.6071L13.6613 20.6224L13.6614 20.6225L13.6614 20.6226L13.6614 20.6228L13.6616 20.6249L13.6628 20.637C13.6639 20.6483 13.6655 20.666 13.6675 20.6897C13.6715 20.737 13.6768 20.808 13.6819 20.8995C13.692 21.0825 13.701 21.3462 13.6959 21.6636C13.6858 22.3015 13.619 23.1413 13.3987 23.974C13.1776 24.8094 12.8109 25.6036 12.2248 26.1876C11.6514 26.7589 10.8366 27.1614 9.64127 27.1735H9.64124H9.64119H9.64113H9.64107H9.64101H9.64094H9.64089H9.64083H9.64077H9.64071H9.64065H9.64059H9.64053H9.64047H9.64041H9.64035H9.64029H9.64023H9.64017H9.64011H9.64005H9.63999H9.63993H9.63987H9.63981H9.63975H9.63969H9.63963H9.63957H9.63951H9.63945H9.63939H9.63933H9.63927H9.63921H9.63915H9.63909H9.63903H9.63897H9.63891H9.63885H9.63879H9.63873H9.63867H9.63861H9.63855H9.63849H9.63843H9.63837H9.63831H9.63825H9.63819H9.63813H9.63807H9.63801H9.63795H9.63789H9.63783H9.63777H9.63771H9.63765H9.63759H9.63753H9.63747H9.63741H9.63735H9.63729H9.63723H9.63717H9.63711H9.63705H9.63699H9.63693H9.63687H9.63681H9.63675H9.63669H9.63663H9.63657H9.63651H9.63645H9.63639H9.63633H9.63627H9.63621H9.63615H9.63609H9.63603H9.63597H9.63591H9.63585H9.63579H9.63573H9.63567H9.63561H9.63555H9.63549H9.63543H9.63537H9.63531H9.63525H9.63519H9.63513H9.63507H9.63501H9.63495H9.63489H9.63483H9.63477H9.63471H9.63465H9.63459H9.63453H9.63447H9.63441H9.63435H9.63429H9.63423H9.63417H9.63411H9.63405H9.63399H9.63393H9.63387H9.63381H9.63375H9.63369H9.63363H9.63357H9.63351H9.63345H9.63339H9.63333H9.63327H9.63321H9.63315H9.63309H9.63303H9.63297H9.63291H9.63285H9.63279H9.63273H9.63267H9.63261H9.63255H9.63249H9.63243H9.63237H9.63231H9.63225H9.63219H9.63213H9.63207H9.63201H9.63195H9.63189H9.63183H9.63177H9.63171H9.63165H9.63159H9.63153H9.63147H9.63141H9.63135H9.63129H9.63123H9.63117H9.63111H9.63105H9.63099H9.63093H9.63087H9.63081H9.63075H9.63069H9.63063H9.63057H9.63051H9.63045H9.63039H9.63033H9.63027H9.63021H9.63015H9.63009H9.63003H9.62997H9.62991H9.62985H9.62979H9.62973H9.62967H9.62961H9.62955H9.62949H9.62943H9.62937H9.62931H9.62925H9.62919H9.62913H9.62907H9.62901H9.62895H9.62889H9.62883H9.62877H9.62871H9.62865H9.62859H9.62853H9.62847H9.62841H9.62835H9.62829H9.62823H9.62817H9.62811H9.62805H9.62799H9.62793H9.62787H9.62781H9.62775H9.62769H9.62763H9.62757H9.62751H9.62745H9.62739H9.62733H9.62727H9.62721H9.62715H9.62709H9.62703H9.62697H9.62691H9.62685H9.62679H9.62673H9.62667H9.62661H9.62655H9.62649H9.62643H9.62637H9.62631H9.62625H9.62619H9.62613H9.62607H9.62601H9.62595H9.62589H9.62583H9.62577H9.62571H9.62565H9.62559H9.62553H9.62547H9.62541H9.62535H9.62529H9.62523H9.62517H9.62511H9.62505H9.62499H9.62493H9.62487H9.62481H9.62475H9.62469H9.62463H9.62457H9.62451H9.62445H9.62439H9.62433H9.62427H9.62421H9.62415H9.62409H9.62403H9.62397H9.62391H9.62385H9.62379H9.62373H9.62367H9.62361H9.62355H9.62349H9.62343H9.62337H9.62331H9.62325H9.62319H9.62313H9.62307H9.62301H9.62295H9.62289H9.62283H9.62277H9.62271H9.62265H9.62259H9.62253H9.62247H9.62241H9.62235H9.62229H9.62223H9.62217H9.62211H9.62205H9.62199H9.62193H9.62187H9.62181H9.62175H9.62169H9.62163H9.62157H9.62151H9.62145H9.62139H9.62133H9.62127H9.62121H9.62115H9.62109H9.62103H9.62097H9.62091H9.62085H9.62079H9.62073H9.62067H9.62061H9.62055H9.62049H9.62043H9.62037H9.62031H9.62025H9.62019H9.62013H9.62007H9.62001H9.61995H9.61989H9.61983H9.61977H9.61971H9.61965H9.61959H9.61953H9.61947H9.61941H9.61935H9.61929H9.61923H9.61917H9.61911H9.61905H9.61899H9.61893H9.61887H9.61881H9.61875H9.61869H9.61863H9.61857H9.61851H9.61845H9.61839H9.61833H9.61827H9.61821H9.61815H9.61809H9.61803H9.61797H9.61791H9.61785H9.61779H9.61773H9.61767H9.61761H9.61755H9.61749H9.61743H9.61737H9.61731H9.61725H9.61719H9.61713H9.61707H9.61701H9.61695H9.61689H9.61683H9.61677H9.61671H9.61665H9.61659H9.61653H9.61647H9.61641H9.61635H9.61629H9.61623H9.61617H9.61611H9.61605H9.61599H9.61593H9.61587H9.61581H9.61575H9.61569H9.61563H9.61557H9.61551H9.61545H9.61539H9.61533H9.61527H9.61521H9.61515H9.61509H9.61503H9.61497H9.61491H9.61485H9.61479H9.61473H9.61467H9.61461H9.61455H9.61449H9.61443H9.61437H9.61431H9.61425H9.61419H9.61413H9.61407H9.61401H9.61395H9.61389H9.61383H9.61377H9.61371H9.61365H9.61359H9.61353H9.61347H9.61341H9.61335H9.61329H9.61323H9.61317H9.61311H9.61305H9.61299H9.61293H9.61287H9.61281H9.61275H9.61269H9.61263H9.61257H9.61251H9.61245H9.61239H9.61233H9.61227H9.61221H9.61215H9.61209H9.61203H9.61197H9.61191H9.61185H9.61179H9.61173H9.61167H9.61161H9.61155H9.61149H9.61143H9.61137H9.61131H9.61125H9.61119H9.61113H9.61107H9.61101H9.61095H9.61089H9.61083H9.61077H9.61071H9.61065H9.61059H9.61053H9.61047H9.61041H9.61035H9.61029H9.61023H9.61017H9.61011H9.61005H9.60999H9.60993H9.60987H9.60981H9.60975H9.60969H9.60963H9.60957H9.60951H9.60945H9.60939H9.60933H9.60927H9.60921H9.60915H9.60909H9.60903H9.60897H9.60891H9.60885H9.60879H9.60873H9.60867H9.60861H9.60855H9.60849H9.60843H9.60837H9.60831H9.60825H9.60819H9.60813H9.60807H9.60801H9.60795H9.60789H9.60783H9.60777H9.60771H9.60765H9.60759H9.60753H9.60747H9.60741H9.60735H9.60729H9.60723H9.60717H9.60711H9.60705H9.60699H9.60693H9.60687H9.60681H9.60675H9.60669H9.60663H9.60657H9.60651H9.60645H9.60639H9.60633H9.60627H9.60621H9.60615H9.60609H9.60603H9.60597H9.60591H9.60585H9.60579H9.60573H9.60567H9.60561H9.60555H9.60549H9.60543H9.60537H9.60531H9.60525H9.60519H9.60513H9.60507H9.60501H9.60495H9.60489H9.60483H9.60477H9.60471H9.60465H9.60459H9.60453H9.60447H9.60441H9.60435H9.60429H9.60423H9.60417H9.60411H9.60405H9.60399H9.60393H9.60387H9.60381H9.60375H9.60369H9.60363H9.60357H9.60351H9.60346H9.60339H9.60333H9.60327H9.60321H9.60316H9.6031H9.60303H9.60297H9.60291H9.60286H9.6028H9.60274H9.60267H9.60261H9.60256H9.6025H9.60244H9.60238H9.60231H9.60226H9.6022H9.60214H9.60208H9.60202H9.60196H9.6019H9.60184H9.60178H9.60172H9.60166H9.6016H9.60154H9.60148H9.60142H9.60136H9.6013H9.60124H9.60118H9.60112H9.60106H9.601H9.60094H9.60088H9.60082H9.60076H9.6007H9.60064H9.60058H9.60052H9.60046H9.6004H9.60034H9.60028H9.60022H9.60016H9.6001H9.60004H9.59998H9.59992H9.59986H9.5998H9.59974H9.59968H9.59962H9.59956H9.5995H9.59944H9.59938H9.59932H9.59926H9.5992H9.59914H9.59908H9.59902H9.59896H9.5989H9.59884H9.59878H9.59872H9.59866H9.5986H9.59854H9.59848H9.59842H9.59836H9.5983H9.59824H9.59818H9.59812H9.59806H9.598H9.59794H9.59788H9.59782H9.59776H9.5977H9.59764H9.59758H9.59752H9.59746H9.5974H9.59734H9.59728H9.59722H9.59716H9.5971H9.59704H9.59698H9.59692H9.59686H9.5968H9.59674H9.59668H9.59662H9.59656H9.5965H9.59644H9.59638H9.59632H9.59626H9.5962H9.59614H9.59608H9.59602H9.59596H9.5959H9.59584H9.59578H9.59572H9.59566H9.5956H9.59554H9.59548H9.59542H9.59536H9.5953H9.59524H9.59518H9.59512H9.59506H9.595H9.59494H9.59488H9.59482H9.59476H9.5947H9.59464H9.59458H9.59452H9.59446H9.5944H9.59434H9.59428H9.59422H9.59416H9.5941H9.59404H9.59398H9.59392H9.59386H9.5938H9.59374H9.59368H9.59362H9.59356H9.5935H9.59344H9.59338H9.59332H9.59326H9.5932H9.59314H9.59308H9.59302H9.59296H9.5929H9.59284H9.59278H9.59272H9.59266H9.5926H9.59254H9.59248H9.59242H9.59236H9.5923H9.59224H9.59218H9.59212H9.59206H9.592H9.59194H9.59188H9.59182H9.59176H9.5917H9.59164H9.59158H9.59152H9.59146H9.5914H9.59134H9.59128H9.59122H9.59116H9.5911H9.59104H9.59098H9.59092H9.59086H9.5908H9.59074H9.59068H9.59062H9.59056H9.5905H9.59044H9.59038H9.59032H9.59026H9.5902H9.59014H9.59008H9.59002H9.58996H9.5899H9.58984H9.58978H9.58972H9.58966H9.5896H9.58954H9.58948H9.58942H9.58936H9.5893H9.58924H9.58918H9.58912H9.58906H9.589H9.58894H9.58888H9.58882H9.58876H9.5887H9.58864H9.58858H9.58852H9.58846H9.5884H9.58834H9.58828H9.58822H9.58816H9.5881H9.58804H9.58798H9.58792H9.58786H9.5878H9.58774H9.58768H9.58762H9.58756H9.5875H9.58744H9.58738H9.58732H9.58726H9.5872H9.58714H9.58708H9.58702H9.58696H9.5869H9.58684H9.58678H9.58672H9.58666H9.5866H9.58654H9.58648H9.58642H9.58636H9.5863H9.58624H9.58618H9.58612H9.58606H9.586H9.58594H9.58588H9.58582H9.58576H9.5857H9.58564H9.58558H9.58552H9.58546H9.5854H9.58534H9.58528H9.58522H9.58516H9.5851H9.58504H9.58498H9.58492H9.58486H9.5848H9.58474C8.392 27.1614 7.57839 26.7596 7.00543 26.1889C6.41975 25.6056 6.05274 24.8122 5.83104 23.9774C5.42304 22.441 5.53996 20.9309 5.56379 20.6232C5.56477 20.6105 5.56559 20.5999 5.56622 20.5914L5.56702 20.5914C5.66677 18.4063 6.61147 17.3972 7.51435 16.9049C8.45853 16.3901 9.43368 16.4018 9.58671 16.4099L9.60642 16.4109L9.62615 16.4104C9.79395 16.406 10.7686 16.3958 11.712 16.909C12.6148 17.4001 13.5592 18.4066 13.659 20.5914Z" stroke="white"/>
</g>
<defs>
<clipPath id="clip0">
<rect width="50" height="50" fill="white"/>
</clipPath>
</defs>
</svg>
