<svg width="48" height="48" viewBox="0 0 48 48" fill="none" xmlns="http://www.w3.org/2000/svg">
<path d="M24.9862 34.9858V30.8964C24.9862 30.4533 24.6277 30.0948 24.1846 30.0948C23.7415 30.0948 23.3831 30.4533 23.3831 30.8964V34.9858C23.3831 35.4289 23.7415 35.7873 24.1846 35.7873C24.6277 35.7873 24.9862 35.4289 24.9862 34.9858Z" fill="white"/>
<path d="M19.4245 37.6605C19.7638 37.379 19.813 36.8736 19.5291 36.532L16.9075 33.3696C16.6244 33.0288 16.1206 32.9811 15.779 33.265C15.4398 33.5465 15.3906 34.0519 15.6744 34.3935L18.296 37.5559C18.4537 37.7467 18.6822 37.8451 18.913 37.8451C19.0922 37.8451 19.2738 37.7844 19.4245 37.6605Z" fill="white"/>
<path d="M29.6962 37.7997L32.8586 35.178C33.1979 34.8965 33.2471 34.3911 32.9632 34.0495C32.6802 33.7088 32.1763 33.6611 31.8347 33.9449L28.6723 36.5665C28.3331 36.8481 28.2839 37.3535 28.5677 37.695C28.7254 37.8858 28.9539 37.9843 29.1847 37.9843C29.3647 37.9843 29.5462 37.9235 29.6962 37.7997Z" fill="white"/>
<path d="M45.3684 17.0375C45.3815 16.979 45.4038 16.9244 45.4038 16.8621V14.562C45.4038 14.4359 45.3684 14.3205 45.3168 14.2143C45.3199 14.0736 45.2991 13.9313 45.2238 13.7997L44.2599 12.1297C40.2005 5.09867 32.6357 0.730835 24.5162 0.730835H24.2592C16.1405 0.730835 8.57566 5.09867 4.51553 12.1297L3.34318 14.1613C3.27241 14.2836 3.23549 14.4213 3.23549 14.562V16.5713C1.29389 17.8329 0 20.013 0 22.4977V28.7479C0 32.648 3.17241 35.8196 7.07177 35.8196H10.5034C11.8288 35.8196 12.9073 34.7412 12.9073 33.4157V17.8275C12.9073 16.5021 11.8288 15.4236 10.5034 15.4236H7.07177C6.28712 15.4236 5.54479 15.5821 4.83862 15.8198V14.7759L5.9025 12.9305C9.67723 6.39409 16.7121 2.33319 24.26 2.33319H24.5169C32.0649 2.33319 39.0989 6.39409 42.8721 12.9312L43.8045 14.549C43.8045 14.5536 43.8022 14.5574 43.8022 14.562V16.0482C42.9221 15.6544 41.9537 15.4244 40.929 15.4244H37.4974C36.1719 15.4244 35.0934 16.5029 35.0934 17.8283V33.4165C35.0934 34.7419 36.1719 35.8204 37.4974 35.8204H40.929C41.5729 35.8204 42.1852 35.7058 42.7783 35.5443L38.9728 42.1291C38.4674 43.0022 37.5266 43.5453 36.5158 43.5453H30.0625C29.914 43.5453 29.7825 43.5961 29.664 43.6668C29.3633 42.3852 28.2171 41.4252 26.8455 41.4252H21.5245C19.9253 41.4252 18.6229 42.7276 18.6229 44.3692C18.6229 45.9684 19.9253 47.2708 21.5245 47.2708H26.8455C28.2094 47.2708 29.3494 46.32 29.6579 45.023C29.7786 45.0953 29.9117 45.1484 30.0633 45.1484H36.5158C38.0966 45.1484 39.569 44.2984 40.359 42.9306L45.223 34.5142C45.2707 34.4327 45.2938 34.345 45.3099 34.2565C46.9361 32.9596 48.0008 30.9857 48.0008 28.7487V22.4985C48 20.2876 46.9607 18.336 45.3684 17.0375ZM1.60236 28.7479V22.4977C1.60236 19.7476 3.64704 17.4891 6.29097 17.1052V34.0873C6.29097 34.1058 6.3002 34.1211 6.30174 34.1396C3.65243 33.7611 1.60236 31.5003 1.60236 28.7479ZM11.305 17.8275V33.4165C11.305 33.858 10.945 34.2181 10.5034 34.2181H7.86718C7.87487 34.1742 7.89333 34.1342 7.89333 34.0881V17.0875C7.89333 17.066 7.88256 17.0475 7.88102 17.0267H10.5034C10.945 17.0267 11.305 17.3868 11.305 17.8275ZM20.2253 44.3253C20.2253 43.6084 20.8076 43.026 21.5245 43.026H21.813C21.8122 43.0383 21.8061 43.0483 21.8061 43.0607V45.6661H21.5245C20.8076 45.6669 20.2253 45.0846 20.2253 44.3253ZM26.8447 45.6669H23.4084V43.0614C23.4084 43.0491 23.4023 43.0391 23.4015 43.0268H26.8447C27.5617 43.0268 28.144 43.6091 28.144 44.3676C28.144 45.0846 27.5617 45.6669 26.8447 45.6669ZM36.695 33.4165V17.8275C36.695 17.386 37.055 17.026 37.4966 17.026H40.119C40.1174 17.0475 40.1067 17.0652 40.1067 17.0867V34.0865C40.1067 34.1327 40.1251 34.1727 40.1328 34.2165H37.4966C37.055 34.2173 36.695 33.8573 36.695 33.4165ZM46.3976 28.7479C46.3976 31.4995 44.3476 33.7611 41.6983 34.1396C41.6998 34.1211 41.709 34.1058 41.709 34.0873V17.1052C44.353 17.4883 46.3976 19.7476 46.3976 22.4977V28.7479Z" fill="white"/>
</svg>
