<svg width="48" height="48" viewBox="0 0 48 48" fill="none" xmlns="http://www.w3.org/2000/svg">
<path fill-rule="evenodd" clip-rule="evenodd" d="M46.3623 37.3219L46.3619 37.3215L46.3611 37.3223L36.1925 27.1502C35.8806 26.8382 35.3748 26.8382 35.0629 27.1502L32.8004 29.4143L29.9754 26.5883L32.8866 23.6793C36.8981 24.5793 41.0912 23.3683 44.0059 20.4681C47.2624 17.186 48.3564 12.3302 46.822 7.96793C46.7305 7.70969 46.5132 7.51638 46.246 7.45564C45.9787 7.3962 45.6995 7.47652 45.5046 7.66903L39.8324 13.3385L35.5981 11.9263L34.1865 7.69061L39.8539 2.01633C40.1656 1.70395 40.1651 1.19786 39.8527 0.886073C39.7688 0.802158 39.667 0.738123 39.5551 0.698463C33.3205 -1.52339 26.4659 1.73142 24.2448 7.96813C23.4831 10.1071 23.3443 12.4184 23.8446 14.6332L20.9365 17.5455L10.7528 7.35095L10.4333 3.90563C10.4068 3.62001 10.2293 3.37057 9.9683 3.25189L3.75438 0.430733C3.45189 0.292572 3.09558 0.356208 2.8596 0.590572L0.606672 2.8443C0.372392 3.08036 0.308779 3.4368 0.44689 3.73939L3.26704 9.95712C3.38558 10.2188 3.63534 10.3967 3.92135 10.423L7.36545 10.7427L17.5532 20.93L1.63487 36.8524C-0.544957 39.039 -0.544957 42.5778 1.63487 44.7644L2.76133 45.8913C4.94735 48.0715 8.48453 48.0715 10.6705 45.8913L26.5928 29.9721L29.4178 32.7973L27.1545 35.0622C26.8426 35.3743 26.8426 35.8802 27.1545 36.1922L37.323 46.3636C39.5083 48.5455 43.0469 48.5455 45.2322 46.3636L46.3619 45.2335C48.5459 43.0489 48.5461 39.5067 46.3623 37.3219ZM8.2874 9.40808C8.15558 9.27611 7.98181 9.19439 7.79607 9.17711L4.52693 8.87661L2.13019 3.58595L3.60019 2.11464L8.88898 4.51222L9.19016 7.78172C9.20724 7.96743 9.28863 8.14126 9.42025 8.27322L19.8061 18.6723L18.682 19.7968L8.2874 9.40808ZM3.89099 44.7644C5.45306 46.3236 7.98201 46.3236 9.54408 44.7644L32.0757 22.2271C32.2766 22.0242 32.5712 21.945 32.8467 22.0202C34.4553 22.4519 36.1441 22.4902 37.7706 22.1316C43.3695 20.8976 46.9084 15.3567 45.6748 9.75574L40.6105 14.8146C40.3965 15.0278 40.0805 15.102 39.794 15.0064L34.7129 13.3129C34.4743 13.2336 34.2869 13.0464 34.2072 12.8079L32.5135 7.72499C32.4175 7.43778 32.4921 7.1209 32.7061 6.90661L37.7632 1.84132C36.1556 1.49258 34.4883 1.53014 32.898 1.95091C27.3434 3.42063 24.0315 9.11658 25.5007 14.6732C25.5746 14.949 25.4957 15.2433 25.2938 15.4452L2.76453 37.9825C1.20586 39.5451 1.20586 42.0749 2.76453 43.6375L3.89099 44.7644ZM27.7225 28.842L28.63 27.9342L28.8458 27.7184L31.6739 30.5443L30.5474 31.6712L27.7225 28.842ZM45.2314 44.1066V44.1034C46.7914 42.5429 46.7914 40.0129 45.2314 38.4523L35.6277 28.8452L28.8489 35.6272L38.4526 45.2335C40.0137 46.7913 42.5407 46.7913 44.1017 45.2335L45.2314 44.1066Z" fill="white"/>
</svg>
