<svg width="246" height="40" viewBox="0 0 246 40" fill="none" xmlns="http://www.w3.org/2000/svg">
<g clip-path="url(#clip0)">
<path fill-rule="evenodd" clip-rule="evenodd" d="M26.6711 18.1325C31.3988 12.8907 34 6.45145 34 0H33.1247H29.2538H4.814H0V38H4.814H29.2538H33.9938C33.9938 30.0396 30.6037 23.246 26.215 18.6212C26.3691 18.4563 26.5232 18.2913 26.6711 18.1325ZM28.7669 33.2225H4.814V4.77138H28.6682C27.6204 9.04791 25.2843 12.7257 22.6461 15.481C19.669 13.3244 16.5315 12.127 13.8318 12.127C11.921 12.127 10.2875 12.7502 9.11639 13.9232C8.27194 14.7723 7.26106 16.3424 7.26106 19C7.26106 21.0405 7.8343 22.6717 8.97462 23.8508C10.078 24.9932 11.6251 25.5981 13.4434 25.5981C16.1802 25.5981 19.521 24.1807 22.6769 21.7981C25.3829 24.5717 27.7745 28.445 28.7669 33.2225ZM18.9108 18.6884C16.8336 20.1119 14.8611 20.8939 13.4558 20.8939C13.1106 20.8939 12.6483 20.845 12.4141 20.6006C12.1613 20.3379 12.0134 19.7514 12.0134 19C12.0134 18.1691 12.186 17.5399 12.5004 17.2283C12.827 16.8984 13.4126 16.8312 13.8379 16.8312C15.1755 16.8251 16.9877 17.4666 18.9108 18.6884Z" fill="#0047FF"/>
<path d="M75.24 18.8961C76.632 19.3521 77.736 20.1201 78.552 21.2001C79.368 22.2561 79.776 23.5761 79.776 25.1601C79.776 27.3441 78.936 29.0361 77.256 30.2361C75.576 31.4121 73.128 32.0001 69.912 32.0001H57.384V6.80009H69.192C72.168 6.80009 74.46 7.38809 76.068 8.56409C77.676 9.71609 78.48 11.3121 78.48 13.3521C78.48 14.6001 78.192 15.7041 77.616 16.6641C77.04 17.6241 76.248 18.3681 75.24 18.8961ZM62.064 10.4721V17.4201H68.688C70.32 17.4201 71.568 17.1321 72.432 16.5561C73.32 15.9561 73.764 15.0921 73.764 13.9641C73.764 12.8121 73.32 11.9481 72.432 11.3721C71.568 10.7721 70.32 10.4721 68.688 10.4721H62.064ZM69.624 28.3281C73.248 28.3281 75.06 27.1161 75.06 24.6921C75.06 22.2681 73.248 21.0561 69.624 21.0561H62.064V28.3281H69.624Z" fill="white"/>
<path d="M88.6228 15.5841C89.9188 13.5681 92.1988 12.5601 95.4628 12.5601V16.8441C95.0788 16.7721 94.7308 16.7361 94.4188 16.7361C92.6668 16.7361 91.2988 17.2521 90.3148 18.2841C89.3308 19.2921 88.8388 20.7561 88.8388 22.6761V32.0001H84.3388V12.7761H88.6228V15.5841Z" fill="white"/>
<path d="M107.744 32.2521C105.8 32.2521 104.048 31.8321 102.488 30.9921C100.928 30.1521 99.7044 28.9881 98.8164 27.5001C97.9524 25.9881 97.5204 24.2841 97.5204 22.3881C97.5204 20.4921 97.9524 18.8001 98.8164 17.3121C99.7044 15.8241 100.928 14.6601 102.488 13.8201C104.048 12.9801 105.8 12.5601 107.744 12.5601C109.712 12.5601 111.476 12.9801 113.036 13.8201C114.596 14.6601 115.808 15.8241 116.672 17.3121C117.56 18.8001 118.004 20.4921 118.004 22.3881C118.004 24.2841 117.56 25.9881 116.672 27.5001C115.808 28.9881 114.596 30.1521 113.036 30.9921C111.476 31.8321 109.712 32.2521 107.744 32.2521ZM107.744 28.4001C109.4 28.4001 110.768 27.8481 111.848 26.7441C112.928 25.6401 113.468 24.1881 113.468 22.3881C113.468 20.5881 112.928 19.1361 111.848 18.0321C110.768 16.9281 109.4 16.3761 107.744 16.3761C106.088 16.3761 104.72 16.9281 103.64 18.0321C102.584 19.1361 102.056 20.5881 102.056 22.3881C102.056 24.1881 102.584 25.6401 103.64 26.7441C104.72 27.8481 106.088 28.4001 107.744 28.4001Z" fill="white"/>
<path d="M130.156 23.7561L126.808 26.9241V32.0001H122.308V5.28809H126.808V21.4161L136.132 12.7761H141.532L133.504 20.8401L142.287 32.0001H136.815L130.156 23.7561Z" fill="white"/>
<path d="M162.458 22.4961C162.458 22.8081 162.434 23.2521 162.386 23.8281H147.302C147.566 25.2441 148.25 26.3721 149.354 27.2121C150.482 28.0281 151.874 28.4361 153.53 28.4361C155.642 28.4361 157.382 27.7401 158.75 26.3481L161.162 29.1201C160.298 30.1521 159.206 30.9321 157.886 31.4601C156.566 31.9881 155.078 32.2521 153.422 32.2521C151.31 32.2521 149.45 31.8321 147.842 30.9921C146.234 30.1521 144.986 28.9881 144.098 27.5001C143.234 25.9881 142.802 24.2841 142.802 22.3881C142.802 20.5161 143.222 18.8361 144.062 17.3481C144.926 15.8361 146.114 14.6601 147.626 13.8201C149.138 12.9801 150.842 12.5601 152.738 12.5601C154.61 12.5601 156.278 12.9801 157.742 13.8201C159.23 14.6361 160.382 15.8001 161.198 17.3121C162.038 18.8001 162.458 20.5281 162.458 22.4961ZM152.738 16.1601C151.298 16.1601 150.074 16.5921 149.066 17.4561C148.082 18.2961 147.482 19.4241 147.266 20.8401H158.174C157.982 19.4481 157.394 18.3201 156.41 17.4561C155.426 16.5921 154.202 16.1601 152.738 16.1601Z" fill="white"/>
<path d="M171.064 15.5841C172.36 13.5681 174.64 12.5601 177.904 12.5601V16.8441C177.52 16.7721 177.172 16.7361 176.86 16.7361C175.108 16.7361 173.74 17.2521 172.756 18.2841C171.772 19.2921 171.28 20.7561 171.28 22.6761V32.0001H166.78V12.7761H171.064V15.5841Z" fill="white"/>
<path d="M188.96 12.5601C191.792 12.5601 193.952 13.2441 195.44 14.6121C196.952 15.9561 197.708 17.9961 197.708 20.7321V32.0001H193.46V29.6601C192.908 30.5001 192.116 31.1481 191.084 31.6041C190.076 32.0361 188.852 32.2521 187.412 32.2521C185.972 32.2521 184.712 32.0121 183.632 31.5321C182.552 31.0281 181.712 30.3441 181.112 29.4801C180.536 28.5921 180.248 27.5961 180.248 26.4921C180.248 24.7641 180.884 23.3841 182.156 22.3521C183.452 21.2961 185.48 20.7681 188.24 20.7681H193.208V20.4801C193.208 19.1361 192.8 18.1041 191.984 17.3841C191.192 16.6641 190.004 16.3041 188.42 16.3041C187.34 16.3041 186.272 16.4721 185.216 16.8081C184.184 17.1441 183.308 17.6121 182.588 18.2121L180.824 14.9361C181.832 14.1681 183.044 13.5801 184.46 13.1721C185.876 12.7641 187.376 12.5601 188.96 12.5601ZM188.348 28.9761C189.476 28.9761 190.472 28.7241 191.336 28.2201C192.224 27.6921 192.848 26.9481 193.208 25.9881V23.7561H188.564C185.972 23.7561 184.676 24.6081 184.676 26.3121C184.676 27.1281 185 27.7761 185.648 28.2561C186.296 28.7361 187.196 28.9761 188.348 28.9761Z" fill="white"/>
<path d="M222.739 12.7761V29.0841C222.739 35.8521 219.283 39.2361 212.371 39.2361C210.523 39.2361 208.771 38.9961 207.115 38.5161C205.459 38.0601 204.091 37.3881 203.011 36.5001L205.027 33.1161C205.867 33.8121 206.923 34.3641 208.195 34.7721C209.491 35.2041 210.799 35.4201 212.119 35.4201C214.231 35.4201 215.779 34.9401 216.763 33.9801C217.747 33.0201 218.239 31.5561 218.239 29.5881V28.5801C217.471 29.4201 216.535 30.0561 215.431 30.4881C214.327 30.9201 213.115 31.1361 211.795 31.1361C209.971 31.1361 208.315 30.7521 206.827 29.9841C205.363 29.1921 204.199 28.0881 203.335 26.6721C202.495 25.2561 202.075 23.6361 202.075 21.8121C202.075 19.9881 202.495 18.3801 203.335 16.9881C204.199 15.5721 205.363 14.4801 206.827 13.7121C208.315 12.9441 209.971 12.5601 211.795 12.5601C213.187 12.5601 214.447 12.7881 215.575 13.2441C216.727 13.7001 217.687 14.3961 218.455 15.3321V12.7761H222.739ZM212.479 27.3201C214.183 27.3201 215.575 26.8161 216.655 25.8081C217.759 24.7761 218.311 23.4441 218.311 21.8121C218.311 20.2041 217.759 18.8961 216.655 17.8881C215.575 16.8801 214.183 16.3761 212.479 16.3761C210.751 16.3761 209.335 16.8801 208.231 17.8881C207.151 18.8961 206.611 20.2041 206.611 21.8121C206.611 23.4441 207.151 24.7761 208.231 25.8081C209.335 26.8161 210.751 27.3201 212.479 27.3201Z" fill="white"/>
<path d="M246.727 22.4961C246.727 22.8081 246.703 23.2521 246.655 23.8281H231.571C231.835 25.2441 232.519 26.3721 233.623 27.2121C234.751 28.0281 236.143 28.4361 237.799 28.4361C239.911 28.4361 241.651 27.7401 243.019 26.3481L245.431 29.1201C244.567 30.1521 243.475 30.9321 242.155 31.4601C240.835 31.9881 239.347 32.2521 237.691 32.2521C235.579 32.2521 233.719 31.8321 232.111 30.9921C230.503 30.1521 229.255 28.9881 228.367 27.5001C227.503 25.9881 227.071 24.2841 227.071 22.3881C227.071 20.5161 227.491 18.8361 228.331 17.3481C229.195 15.8361 230.383 14.6601 231.895 13.8201C233.407 12.9801 235.111 12.5601 237.007 12.5601C238.879 12.5601 240.547 12.9801 242.011 13.8201C243.499 14.6361 244.651 15.8001 245.467 17.3121C246.307 18.8001 246.727 20.5281 246.727 22.4961ZM237.007 16.1601C235.567 16.1601 234.343 16.5921 233.335 17.4561C232.351 18.2961 231.751 19.4241 231.535 20.8401H242.443C242.251 19.4481 241.663 18.3201 240.679 17.4561C239.695 16.5921 238.471 16.1601 237.007 16.1601Z" fill="white"/>
</g>
<defs>
<clipPath id="clip0">
<rect width="246" height="40" fill="white"/>
</clipPath>
</defs>
</svg>
