<svg width="123" height="20" viewBox="0 0 123 20" fill="none" xmlns="http://www.w3.org/2000/svg">
<g clip-path="url(#clip0)">
<path fill-rule="evenodd" clip-rule="evenodd" d="M13.3356 9.06624C15.6994 6.44534 17 3.22572 17 0H16.5624H14.6269H2.407H0V19H2.407H14.6269H16.9969C16.9969 15.0198 15.3018 11.623 13.1075 9.31061C13.1846 9.22814 13.2616 9.14566 13.3356 9.06624ZM14.3834 16.6113H2.407V2.38569H14.3341C13.8102 4.52396 12.6421 6.36286 11.3231 7.74051C9.83448 6.66222 8.26577 6.0635 6.91588 6.0635C5.96048 6.0635 5.14376 6.37508 4.55819 6.96158C4.13597 7.38617 3.63053 8.17122 3.63053 9.5C3.63053 10.5203 3.91715 11.3359 4.48731 11.9254C5.03898 12.4966 5.81255 12.799 6.72172 12.799C8.0901 12.799 9.76051 12.0904 11.3385 10.899C12.6914 12.2859 13.8872 14.2225 14.3834 16.6113ZM9.4554 9.34421C8.41679 10.0559 7.43057 10.4469 6.72788 10.4469C6.55529 10.4469 6.32415 10.4225 6.20703 10.3003C6.08067 10.169 6.00671 9.87572 6.00671 9.5C6.00671 9.08457 6.093 8.76994 6.25018 8.61415C6.41352 8.4492 6.70631 8.4156 6.91896 8.4156C7.58774 8.41254 8.49384 8.73328 9.4554 9.34421Z" fill="#0047FF"/>
<path d="M37.6199 9.44804C38.3159 9.67604 38.8679 10.06 39.2759 10.6C39.6839 11.128 39.8879 11.788 39.8879 12.58C39.8879 13.672 39.4679 14.518 38.6279 15.118C37.7879 15.706 36.5639 16 34.9559 16H28.6919V3.40004H34.5959C36.0839 3.40004 37.2299 3.69404 38.0339 4.28204C38.8379 4.85804 39.2399 5.65604 39.2399 6.67604C39.2399 7.30004 39.0959 7.85204 38.8079 8.33204C38.5199 8.81204 38.1239 9.18404 37.6199 9.44804ZM31.0319 5.23604V8.71004H34.3439C35.1599 8.71004 35.7839 8.56604 36.2159 8.27804C36.6599 7.97804 36.8819 7.54604 36.8819 6.98204C36.8819 6.40604 36.6599 5.97404 36.2159 5.68604C35.7839 5.38604 35.1599 5.23604 34.3439 5.23604H31.0319ZM34.8119 14.164C36.6239 14.164 37.5299 13.558 37.5299 12.346C37.5299 11.134 36.6239 10.528 34.8119 10.528H31.0319V14.164H34.8119Z" fill="white"/>
<path d="M44.3113 7.79204C44.9593 6.78404 46.0993 6.28004 47.7313 6.28004V8.42204C47.5393 8.38604 47.3653 8.36804 47.2093 8.36804C46.3333 8.36804 45.6493 8.62604 45.1573 9.14204C44.6653 9.64604 44.4193 10.378 44.4193 11.338V16H42.1693V6.38804H44.3113V7.79204Z" fill="white"/>
<path d="M53.8721 16.126C52.9001 16.126 52.0241 15.916 51.2441 15.496C50.4641 15.076 49.8521 14.494 49.4081 13.75C48.9761 12.994 48.7601 12.142 48.7601 11.194C48.7601 10.246 48.9761 9.40004 49.4081 8.65604C49.8521 7.91204 50.4641 7.33004 51.2441 6.91004C52.0241 6.49004 52.9001 6.28004 53.8721 6.28004C54.8561 6.28004 55.7381 6.49004 56.5181 6.91004C57.2981 7.33004 57.9041 7.91204 58.3361 8.65604C58.7801 9.40004 59.0021 10.246 59.0021 11.194C59.0021 12.142 58.7801 12.994 58.3361 13.75C57.9041 14.494 57.2981 15.076 56.5181 15.496C55.7381 15.916 54.8561 16.126 53.8721 16.126ZM53.8721 14.2C54.7001 14.2 55.3841 13.924 55.9241 13.372C56.4641 12.82 56.7341 12.094 56.7341 11.194C56.7341 10.294 56.4641 9.56804 55.9241 9.01604C55.3841 8.46404 54.7001 8.18804 53.8721 8.18804C53.0441 8.18804 52.3601 8.46404 51.8201 9.01604C51.2921 9.56804 51.0281 10.294 51.0281 11.194C51.0281 12.094 51.2921 12.82 51.8201 13.372C52.3601 13.924 53.0441 14.2 53.8721 14.2Z" fill="white"/>
<path d="M65.0776 11.878L63.4036 13.462V16H61.1536V2.64404H63.4036V10.708L68.0656 6.38804H70.7656L66.7516 10.42L71.1436 16H68.4076L65.0776 11.878Z" fill="white"/>
<path d="M81.2287 11.248C81.2287 11.404 81.2167 11.626 81.1927 11.914H73.6507C73.7827 12.622 74.1247 13.186 74.6767 13.606C75.2407 14.014 75.9367 14.218 76.7647 14.218C77.8207 14.218 78.6907 13.87 79.3747 13.174L80.5807 14.56C80.1487 15.076 79.6027 15.466 78.9427 15.73C78.2827 15.994 77.5387 16.126 76.7107 16.126C75.6547 16.126 74.7247 15.916 73.9207 15.496C73.1167 15.076 72.4927 14.494 72.0487 13.75C71.6167 12.994 71.4007 12.142 71.4007 11.194C71.4007 10.258 71.6107 9.41804 72.0307 8.67404C72.4627 7.91804 73.0567 7.33004 73.8127 6.91004C74.5687 6.49004 75.4207 6.28004 76.3687 6.28004C77.3047 6.28004 78.1387 6.49004 78.8707 6.91004C79.6147 7.31804 80.1907 7.90004 80.5987 8.65604C81.0187 9.40004 81.2287 10.264 81.2287 11.248ZM76.3687 8.08004C75.6487 8.08004 75.0367 8.29604 74.5327 8.72804C74.0407 9.14804 73.7407 9.71204 73.6327 10.42H79.0867C78.9907 9.72404 78.6967 9.16004 78.2047 8.72804C77.7127 8.29604 77.1007 8.08004 76.3687 8.08004Z" fill="white"/>
<path d="M85.532 7.79204C86.18 6.78404 87.32 6.28004 88.952 6.28004V8.42204C88.76 8.38604 88.586 8.36804 88.43 8.36804C87.554 8.36804 86.87 8.62604 86.378 9.14204C85.886 9.64604 85.64 10.378 85.64 11.338V16H83.39V6.38804H85.532V7.79204Z" fill="white"/>
<path d="M94.4799 6.28004C95.8959 6.28004 96.9759 6.62204 97.7199 7.30604C98.4759 7.97804 98.8539 8.99804 98.8539 10.366V16H96.7299V14.83C96.4539 15.25 96.0579 15.574 95.5419 15.802C95.0379 16.018 94.4259 16.126 93.7059 16.126C92.9859 16.126 92.3559 16.006 91.8159 15.766C91.2759 15.514 90.8559 15.172 90.5559 14.74C90.2679 14.296 90.1239 13.798 90.1239 13.246C90.1239 12.382 90.4419 11.692 91.0779 11.176C91.7259 10.648 92.7399 10.384 94.1199 10.384H96.6039V10.24C96.6039 9.56804 96.3999 9.05204 95.9919 8.69204C95.5959 8.33204 95.0019 8.15204 94.2099 8.15204C93.6699 8.15204 93.1359 8.23604 92.6079 8.40404C92.0919 8.57204 91.6539 8.80604 91.2939 9.10604L90.4119 7.46804C90.9159 7.08404 91.5219 6.79004 92.2299 6.58604C92.9379 6.38204 93.6879 6.28004 94.4799 6.28004ZM94.1739 14.488C94.7379 14.488 95.2359 14.362 95.6679 14.11C96.1119 13.846 96.4239 13.474 96.6039 12.994V11.878H94.2819C92.9859 11.878 92.3379 12.304 92.3379 13.156C92.3379 13.564 92.4999 13.888 92.8239 14.128C93.1479 14.368 93.5979 14.488 94.1739 14.488Z" fill="white"/>
<path d="M111.369 6.38804V14.542C111.369 17.926 109.641 19.618 106.185 19.618C105.261 19.618 104.385 19.498 103.557 19.258C102.729 19.03 102.045 18.694 101.505 18.25L102.513 16.558C102.933 16.906 103.461 17.182 104.097 17.386C104.745 17.602 105.399 17.71 106.059 17.71C107.115 17.71 107.889 17.47 108.381 16.99C108.873 16.51 109.119 15.778 109.119 14.794V14.29C108.735 14.71 108.267 15.028 107.715 15.244C107.163 15.46 106.557 15.568 105.897 15.568C104.985 15.568 104.157 15.376 103.413 14.992C102.681 14.596 102.099 14.044 101.667 13.336C101.247 12.628 101.037 11.818 101.037 10.906C101.037 9.99404 101.247 9.19004 101.667 8.49404C102.099 7.78604 102.681 7.24004 103.413 6.85604C104.157 6.47204 104.985 6.28004 105.897 6.28004C106.593 6.28004 107.223 6.39404 107.787 6.62204C108.363 6.85004 108.843 7.19804 109.227 7.66604V6.38804H111.369ZM106.239 13.66C107.091 13.66 107.787 13.408 108.327 12.904C108.879 12.388 109.155 11.722 109.155 10.906C109.155 10.102 108.879 9.44804 108.327 8.94404C107.787 8.44004 107.091 8.18804 106.239 8.18804C105.375 8.18804 104.667 8.44004 104.115 8.94404C103.575 9.44804 103.305 10.102 103.305 10.906C103.305 11.722 103.575 12.388 104.115 12.904C104.667 13.408 105.375 13.66 106.239 13.66Z" fill="white"/>
<path d="M123.363 11.248C123.363 11.404 123.351 11.626 123.327 11.914H115.785C115.917 12.622 116.259 13.186 116.811 13.606C117.375 14.014 118.071 14.218 118.899 14.218C119.955 14.218 120.825 13.87 121.509 13.174L122.715 14.56C122.283 15.076 121.737 15.466 121.077 15.73C120.417 15.994 119.673 16.126 118.845 16.126C117.789 16.126 116.859 15.916 116.055 15.496C115.251 15.076 114.627 14.494 114.183 13.75C113.751 12.994 113.535 12.142 113.535 11.194C113.535 10.258 113.745 9.41804 114.165 8.67404C114.597 7.91804 115.191 7.33004 115.947 6.91004C116.703 6.49004 117.555 6.28004 118.503 6.28004C119.439 6.28004 120.273 6.49004 121.005 6.91004C121.749 7.31804 122.325 7.90004 122.733 8.65604C123.153 9.40004 123.363 10.264 123.363 11.248ZM118.503 8.08004C117.783 8.08004 117.171 8.29604 116.667 8.72804C116.175 9.14804 115.875 9.71204 115.767 10.42H121.221C121.125 9.72404 120.831 9.16004 120.339 8.72804C119.847 8.29604 119.235 8.08004 118.503 8.08004Z" fill="white"/>
</g>
<defs>
<clipPath id="clip0">
<rect width="123" height="20" fill="white"/>
</clipPath>
</defs>
</svg>
