<svg width="38" height="42" viewBox="0 0 38 42" fill="none" xmlns="http://www.w3.org/2000/svg">
<path fill-rule="evenodd" clip-rule="evenodd" d="M29.8089 20.0416C35.0928 14.2481 38 7.13103 38 0.000488281H37.0218H32.6954H5.38035H0V42.0005H5.38035H32.6954H37.9931C37.9931 33.2021 34.2041 25.6934 29.2991 20.5818C29.4714 20.3995 29.6436 20.2172 29.8089 20.0416ZM32.1512 36.7201H5.38035V5.27412H32.041C30.8698 10.0008 28.2589 14.0658 25.3104 17.1111C21.983 14.7275 18.4764 13.404 15.459 13.404C13.3234 13.404 11.4978 14.0928 10.1889 15.3892C9.2451 16.3278 8.1153 18.0632 8.1153 21.0005C8.1153 23.2558 8.75598 25.0587 10.0305 26.3619C11.2636 27.6246 12.9927 28.2931 15.025 28.2931C18.0838 28.2931 21.8176 26.7265 25.3448 24.0931C28.3691 27.1587 31.0421 31.4397 32.1512 36.7201ZM21.1356 20.6561C18.814 22.2294 16.6095 23.0937 15.0388 23.0937C14.653 23.0937 14.1363 23.0397 13.8745 22.7696C13.5921 22.4793 13.4268 21.831 13.4268 21.0005C13.4268 20.0822 13.6197 19.3867 13.971 19.0423C14.3361 18.6777 14.9906 18.6034 15.4659 18.6034C16.9608 18.5966 18.9862 19.3056 21.1356 20.6561Z" fill="#0047FF"/>
</svg>
