<svg width="60" height="60" viewBox="0 0 60 60" fill="none" xmlns="http://www.w3.org/2000/svg">
<path fill-rule="evenodd" clip-rule="evenodd" d="M30 60C46.5685 60 60 46.5685 60 30C60 13.4315 46.5685 0 30 0C13.4315 0 0 13.4315 0 30C0 46.5685 13.4315 60 30 60Z" fill="black"/>
<path d="M19.1146 30.8571C18.9431 30.6857 18.8574 30.4286 18.8574 30.2571C18.8574 30.0857 18.9431 29.8286 19.1146 29.6571L20.3146 28.4571C20.6574 28.1143 21.1717 28.1143 21.5146 28.4571L21.6003 28.5429L26.3146 33.6C26.486 33.7714 26.7431 33.7714 26.9146 33.6L38.4003 21.6857H38.486C38.8288 21.3429 39.3431 21.3429 39.686 21.6857L40.886 22.8857C41.2289 23.2286 41.2289 23.7429 40.886 24.0857L27.1717 38.3143C27.0003 38.4857 26.8289 38.5714 26.5717 38.5714C26.3146 38.5714 26.1431 38.4857 25.9717 38.3143L19.286 31.1143L19.1146 30.8571Z" fill="#2729FF"/>
<mask id="mask0" mask-type="alpha" maskUnits="userSpaceOnUse" x="18" y="21" width="24" height="18">
<path d="M19.1146 30.8571C18.9431 30.6857 18.8574 30.4286 18.8574 30.2571C18.8574 30.0857 18.9431 29.8286 19.1146 29.6571L20.3146 28.4571C20.6574 28.1143 21.1717 28.1143 21.5146 28.4571L21.6003 28.5429L26.3146 33.6C26.486 33.7714 26.7431 33.7714 26.9146 33.6L38.4003 21.6857H38.486C38.8288 21.3429 39.3431 21.3429 39.686 21.6857L40.886 22.8857C41.2289 23.2286 41.2289 23.7429 40.886 24.0857L27.1717 38.3143C27.0003 38.4857 26.8289 38.5714 26.5717 38.5714C26.3146 38.5714 26.1431 38.4857 25.9717 38.3143L19.286 31.1143L19.1146 30.8571Z" fill="white"/>
</mask>
<g mask="url(#mask0)">
<rect x="18.8574" y="21.4286" width="22.2857" height="17.1429" fill="white"/>
</g>
</svg>
