<svg width="80" height="80" viewBox="0 0 80 80" fill="none" xmlns="http://www.w3.org/2000/svg">
<path d="M80 40C80 37.4317 78.2303 35.2883 75.851 34.6759C75.6359 16.0883 70.1738 4.51448 45.3269 4.15586C44.7159 1.77379 42.5697 0 40 0C37.4303 0 35.2841 1.77379 34.6731 4.15586C9.82483 4.51448 4.36414 16.0869 4.14897 34.6759C1.76965 35.2883 0 37.4317 0 40C0 42.5683 1.76965 44.7117 4.14897 45.3241C4.36414 63.9117 9.82621 75.4855 34.6731 75.8441C35.2841 78.2262 37.4303 80 40 80C42.5697 80 44.7159 78.2262 45.3269 75.8441C70.1752 75.4855 75.6359 63.9117 75.851 45.3241C78.2303 44.7117 80 42.5683 80 40ZM40 2.75862C41.5214 2.75862 42.7586 3.99586 42.7586 5.51724C42.7586 7.03172 41.531 8.26345 40.0179 8.27448C39.9986 8.27448 39.9793 8.27172 39.96 8.27172C38.4579 8.24966 37.2414 7.02483 37.2414 5.51724C37.2414 3.99586 38.4786 2.75862 40 2.75862ZM2.75862 40C2.75862 38.4786 3.99586 37.2414 5.51724 37.2414C7.03862 37.2414 8.27586 38.4786 8.27586 40C8.27586 41.5214 7.03862 42.7586 5.51724 42.7586C3.99586 42.7586 2.75862 41.5214 2.75862 40ZM40 77.2414C38.4786 77.2414 37.2414 76.0041 37.2414 74.4828C37.2414 72.9683 38.469 71.7365 39.9821 71.7255C40.0014 71.7255 40.0207 71.7283 40.04 71.7283C41.5421 71.7503 42.7586 72.9752 42.7586 74.4828C42.7586 76.0041 41.5214 77.2414 40 77.2414ZM45.3159 73.0869C45.1531 72.4662 44.9007 71.8814 44.5462 71.3655C46.6966 71.0455 48.7945 70.531 50.7986 69.7959L46.2483 58.2441C44.2814 58.9269 42.1876 59.3131 40.0221 59.3131C39.0676 59.3131 38.1007 59.24 37.1503 59.0993C35.9366 58.9186 34.7614 58.6193 33.6276 58.2262L28.3503 69.4855C30.5738 70.3586 32.8979 71.0166 35.3186 71.3779C35.3572 71.3835 35.3972 71.3848 35.4359 71.3903C35.0897 71.8993 34.8455 72.4772 34.6855 73.0883C12.0069 72.7476 7.11172 62.6345 6.90621 45.3186C7.52 45.1586 8.09931 44.9131 8.60966 44.5655C8.92138 46.7117 9.44138 48.8207 10.1862 50.8593L21.7103 46.1876C20.7352 43.3159 20.44 40.2359 20.9007 37.1503C21.0841 35.9255 21.3876 34.7434 21.789 33.6083L10.5269 28.3793C9.64966 30.5835 8.98483 32.8966 8.62345 35.3186C8.61793 35.3572 8.61517 35.3959 8.60966 35.4345C8.09931 35.0869 7.52 34.8428 6.90621 34.6828C7.11172 17.3655 12.0069 7.25241 34.6841 6.9131C34.8469 7.53379 35.1007 8.11862 35.4552 8.63448C33.3628 8.94759 31.32 9.44414 29.3655 10.1503L34.1917 21.611C36.0317 21.0221 37.9738 20.6869 39.9807 20.6869C40.9352 20.6869 41.9021 20.76 42.8524 20.9007C44.0717 21.0828 45.2538 21.3821 46.3931 21.7793L51.5352 10.4662C49.3476 9.61655 47.0621 8.97793 44.6841 8.62345C44.6455 8.61793 44.6055 8.61655 44.5669 8.61103C44.9131 8.10207 45.1572 7.52414 45.3172 6.9131C67.9945 7.25241 72.8897 17.3655 73.0938 34.6814C72.4828 34.8414 71.9048 35.0855 71.3945 35.4303C71.1035 33.4276 70.629 31.4579 69.96 29.549L58.3186 33.9145C59.2662 36.7572 59.5531 39.8 59.0979 42.851C58.9228 44.0262 58.64 45.1655 58.2621 46.2593L69.5007 51.5476C70.3628 49.3655 71.0179 47.0772 71.3752 44.6828C71.3807 44.6441 71.3834 44.6055 71.389 44.5669C71.8993 44.9145 72.4786 45.1586 73.0924 45.3186C72.8883 62.6345 67.9931 72.7476 45.3159 73.0869ZM74.4828 42.7586C72.9614 42.7586 71.7241 41.5214 71.7241 40C71.7241 38.4786 72.9614 37.2414 74.4828 37.2414C76.0041 37.2414 77.2414 38.4786 77.2414 40C77.2414 41.5214 76.0041 42.7586 74.4828 42.7586Z" fill="#0047FF"/>
<path d="M55.5203 28.5117C56.192 29.4179 56.7617 30.3779 57.2583 31.3655L68.9231 26.9917C67.9976 24.9448 66.8665 22.9738 65.4983 21.1255C62.4486 17.0055 58.53 13.7724 54.0624 11.5696L48.9189 22.8869C51.4872 24.2221 53.7479 26.1158 55.5203 28.5117Z" fill="#0047FF"/>
<path d="M48.7852 57.1573L53.3452 68.7325C59.8169 65.6925 65.1507 60.5131 68.3769 54.0676L57.159 48.789C55.2983 52.3849 52.3521 55.3118 48.7852 57.1573Z" fill="#0047FF"/>
<path d="M24.4798 51.4883C23.8288 50.6096 23.2771 49.6814 22.7902 48.7255L11.2412 53.4069C12.135 55.3117 13.2205 57.1448 14.5005 58.8745C17.524 62.9586 21.404 66.1683 25.8233 68.3696L31.0964 57.1214C28.5226 55.7862 26.2564 53.8883 24.4798 51.4883Z" fill="#0047FF"/>
<path d="M11.6572 25.8621L22.9041 31.0842C24.8407 27.407 27.911 24.4304 31.6214 22.6235L26.8117 11.2001C20.2931 14.218 14.9138 19.3987 11.6572 25.8621Z" fill="#0047FF"/>
</svg>