<svg width="60" height="60" viewBox="0 0 60 60" fill="none" xmlns="http://www.w3.org/2000/svg">
<g clip-path="url(#clip0)">
<path d="M39.6774 0C28.4718 0 19.3548 9.11605 19.3548 20.3226C19.3548 24.8797 20.8811 29.0767 23.4243 32.4709L19.9219 35.9728L18.3871 34.438L1.48469 51.3395C0.527344 52.2987 0 53.5722 0 54.926C0 57.7238 2.27618 60 5.07308 60C6.42877 60 7.70319 59.4727 8.66053 58.5134L25.562 41.6129L24.0272 40.0781L27.5291 36.5757C30.9233 39.1189 35.1203 40.6452 39.6774 40.6452C50.883 40.6452 60 31.5291 60 20.3226C60 9.11605 50.883 0 39.6774 0ZM7.29114 57.1459C6.69953 57.7385 5.91183 58.0645 5.07308 58.0645C3.34268 58.0645 1.93548 56.6564 1.93548 54.926C1.93548 54.0882 2.26153 53.3005 2.85408 52.707L18.3871 37.1749L22.8251 41.6129L7.29114 57.1459ZM22.6588 38.7097L21.2903 37.3412L24.6618 33.9688C25.0966 34.447 25.553 34.9025 26.0312 35.3382L22.6588 38.7097ZM39.6774 38.7097C29.5383 38.7097 21.2903 30.4617 21.2903 20.3226C21.2903 10.1835 29.5383 1.93548 39.6774 1.93548C49.8165 1.93548 58.0645 10.1835 58.0645 20.3226C58.0645 30.4617 49.8165 38.7097 39.6774 38.7097Z" fill="white"/>
<path d="M33.51 19.5568C31.4431 20.1469 30 22.0602 30 24.2098V29.0319H49.3548V24.2098C49.3548 22.0602 47.9117 20.1469 45.8449 19.5568L42.5806 18.6249V18.3674C43.7865 17.4587 44.5161 16.0293 44.5161 14.5168V12.7826C44.5161 10.1813 42.5797 7.97693 40.1079 7.76193C38.7484 7.64191 37.4041 8.10074 36.4085 9.01414C35.4105 9.92754 34.8387 11.2284 34.8387 12.5803V14.5158C34.8387 16.0284 35.5683 17.4587 36.7742 18.3665V18.624L33.51 19.5568ZM38.2286 17.0136C37.3181 16.4834 36.7742 15.5492 36.7742 14.5158V12.5803C36.7742 11.7695 37.1168 10.9884 37.7169 10.4398C38.3227 9.88406 39.1151 9.62087 39.9406 9.68891C41.4211 9.81744 42.5806 11.175 42.5806 12.7816V14.5158C42.5806 15.5492 42.0368 16.4834 41.1262 17.0136L40.6452 17.2933V20.0841L45.3138 21.4176C46.5532 21.7729 47.4194 22.9207 47.4194 24.2098V27.0964H31.9355V24.2098C31.9355 22.9198 32.8016 21.772 34.0411 21.4176L38.7097 20.0841V17.2933L38.2286 17.0136Z" fill="white"/>
</g>
<defs>
<clipPath id="clip0">
<rect width="60" height="60" fill="white"/>
</clipPath>
</defs>
</svg>
