<svg width="60" height="60" viewBox="0 0 60 60" fill="none" xmlns="http://www.w3.org/2000/svg">
<path d="M59 29H56.975C56.458 14.907 45.093 3.542 31 3.025V1C31 0.447 30.553 0 30 0C29.447 0 29 0.447 29 1V3.025C14.907 3.542 3.542 14.907 3.025 29H1C0.447 29 0 29.447 0 30C0 30.553 0.447 31 1 31H3.025C3.542 45.093 14.907 56.458 29 56.975V59C29 59.553 29.447 60 30 60C30.553 60 31 59.553 31 59V56.975C45.093 56.458 56.458 45.093 56.975 31H59C59.553 31 60 30.553 60 30C60 29.447 59.553 29 59 29ZM31 54.975V53C31 52.447 30.553 52 30 52C29.447 52 29 52.447 29 53V54.975C16.01 54.46 5.54 43.99 5.025 31H7C7.553 31 8 30.553 8 30C8 29.447 7.553 29 7 29H5.025C5.54 16.01 16.01 5.54 29 5.025V7C29 7.553 29.447 8 30 8C30.553 8 31 7.553 31 7V5.025C43.99 5.54 54.46 16.01 54.975 29H53C52.447 29 52 29.447 52 30C52 30.553 52.447 31 53 31H54.975C54.46 43.99 43.99 54.46 31 54.975Z" fill="white"/>
<path d="M42 29H36.92C36.479 25.941 34.059 23.521 31 23.08V18C31 17.447 30.553 17 30 17C29.447 17 29 17.447 29 18V23.08C25.941 23.521 23.521 25.942 23.08 29H18C17.447 29 17 29.447 17 30C17 30.553 17.447 31 18 31H23.08C23.521 34.059 25.941 36.479 29 36.92V42C29 42.553 29.447 43 30 43C30.553 43 31 42.553 31 42V36.92C34.059 36.479 36.479 34.058 36.92 31H42C42.553 31 43 30.553 43 30C43 29.447 42.553 29 42 29ZM30 35C27.243 35 25 32.757 25 30C25 27.243 27.243 25 30 25C32.757 25 35 27.243 35 30C35 32.757 32.757 35 30 35Z" fill="white"/>
</svg>
