<svg width="60" height="60" viewBox="0 0 60 60" fill="none" xmlns="http://www.w3.org/2000/svg">
<g clip-path="url(#clip0)">
<path d="M59.7213 54.4714L47.1099 33.974C46.765 33.4137 46.1663 33.0791 45.5083 33.0791C44.8504 33.0791 44.2517 33.4138 43.907 33.974L40.0962 39.5192C39.8414 39.9332 39.9705 40.4755 40.3846 40.7302C40.7988 40.9849 41.3408 40.8558 41.5957 40.4418L45.4065 34.8965C45.4152 34.8825 45.4416 34.8396 45.5085 34.8396C45.5754 34.8396 45.6019 34.8825 45.6106 34.8965L58.222 55.3939C58.2321 55.4102 58.2588 55.4537 58.2246 55.515C58.1904 55.5763 58.1393 55.5763 58.1201 55.5763H51.1357L31.6014 23.8281C31.426 23.5428 31.1845 23.3165 30.9032 23.1627L30.9041 23.1631V17.1889C31.6367 17.3876 32.3502 17.4724 33.0483 17.4724C35.056 17.4724 36.936 16.7746 38.7752 16.0918C41.3238 15.1458 43.7311 14.2522 46.3348 15.2964C46.6705 15.431 47.05 15.3905 47.3496 15.1877C47.6497 14.9847 47.8288 14.6474 47.8288 14.2853V4.34108C47.8288 3.90279 47.5688 3.50893 47.1667 3.33783C43.8617 1.92842 40.9643 3.00373 38.1625 4.04365C35.5377 5.01795 33.0586 5.93822 30.3592 4.73178C30.0867 4.61002 29.7714 4.63463 29.5211 4.79682C29.2708 4.95912 29.1197 5.23709 29.1197 5.53545V5.56815C29.1046 5.63365 29.0959 5.70151 29.0959 5.77158V23.1631C28.815 23.317 28.5738 23.5432 28.3985 23.8281L19.1244 38.9011L16.093 33.9742C15.7483 33.4138 15.1496 33.0792 14.4915 33.0792C13.8337 33.0792 13.2349 33.4138 12.8902 33.9742L0.278574 54.4714C-0.0780276 55.0509 -0.093262 55.7799 0.238613 56.374C0.570488 56.968 1.19943 57.337 1.87994 57.337H58.12C58.8005 57.337 59.4294 56.968 59.7613 56.374C60.0933 55.7799 60.0779 55.0508 59.7213 54.4714ZM30.8803 6.78526C33.73 7.5669 36.2895 6.61686 38.7752 5.69412C41.2344 4.78123 43.5644 3.91662 46.0683 4.79858V13.3515C43.2101 12.5678 40.648 13.5188 38.1626 14.4413C35.7075 15.3526 33.3798 16.2166 30.8803 15.3374V6.78526ZM10.9315 55.5764L13.9515 50.668C14.2063 50.254 14.0772 49.7117 13.6631 49.457C13.249 49.2023 12.7069 49.3313 12.4521 49.7454L8.86443 55.5764H1.88006C1.86084 55.5764 1.80975 55.5764 1.77553 55.5151C1.74131 55.4538 1.76791 55.4104 1.77811 55.394L14.3897 34.8968C14.3984 34.8827 14.4247 34.8398 14.4917 34.8398C14.5586 34.8398 14.5849 34.8827 14.5936 34.8968L18.091 40.5808L12.4521 49.7454C12.1974 50.1594 12.3265 50.7016 12.7405 50.9564C13.1548 51.2112 13.6969 51.082 13.9515 50.668L29.8981 24.7506C29.9067 24.7365 29.9331 24.6936 30 24.6936C30.0668 24.6936 30.0932 24.7365 30.102 24.7506L49.0685 55.5764H10.9315Z" fill="white"/>
</g>
<defs>
<clipPath id="clip0">
<rect width="60" height="60" fill="white"/>
</clipPath>
</defs>
</svg>
