<svg width="40" height="40" viewBox="0 0 40 40" fill="none" xmlns="http://www.w3.org/2000/svg">
<g clip-path="url(#clip0)">
<path d="M39.9923 0.754832C39.9862 0.708735 39.9793 0.664377 39.9654 0.61915C39.9506 0.569574 39.9306 0.524347 39.908 0.47825C39.8958 0.453027 39.8914 0.426065 39.8766 0.401711C39.8671 0.386056 39.8514 0.375619 39.8401 0.360833C39.8114 0.320824 39.7775 0.286034 39.7418 0.250374C39.7062 0.214714 39.6705 0.181663 39.6296 0.152962C39.6149 0.142524 39.6053 0.127739 39.5905 0.119041C39.5661 0.104255 39.5392 0.100776 39.514 0.0885997C39.4661 0.0651163 39.4192 0.0451119 39.3687 0.0303261C39.3261 0.0190193 39.2843 0.012931 39.2409 0.00771249C39.1895 0.0016242 39.14 -0.00185482 39.0887 0.000754448C39.0408 0.00336371 38.9947 0.012931 38.9478 0.0242378C38.9182 0.0311959 38.8877 0.0285866 38.8582 0.0390237L0.588982 13.0853C0.24282 13.2019 0.00711655 13.5246 0.00015852 13.8907C-0.00679951 14.2569 0.215858 14.5883 0.558541 14.7196L18.4381 21.5898L26.1641 39.4754C26.3024 39.7946 26.6172 39.9999 26.9625 39.9999C26.9773 39.9999 26.9912 39.9999 27.006 39.999C27.3687 39.9808 27.681 39.7399 27.7914 39.3946L39.968 1.12535C39.9767 1.09839 39.9741 1.07055 39.9793 1.04272C39.9897 0.994014 39.9975 0.947048 39.9993 0.897472C40.001 0.848765 39.9984 0.802668 39.9923 0.754832ZM3.42177 13.956L35.8784 2.89095L18.8756 19.8938L3.42177 13.956ZM26.8382 36.6505L20.1237 21.1062L37.2256 4.00337L26.8382 36.6505Z" fill="white"/>
<path d="M13.6619 26.3388C13.3219 25.9987 12.7722 25.9987 12.4321 26.3388L0.255544 38.5153C-0.0845302 38.8554 -0.0845302 39.4051 0.255544 39.7452C0.425146 39.9148 0.647803 40 0.87046 40C1.09312 40 1.31577 39.9148 1.48538 39.7452L13.6619 27.5686C14.002 27.2286 14.002 26.6789 13.6619 26.3388Z" fill="white"/>
<path d="M15.9107 32.4271L9.82244 38.5153C9.48236 38.8554 9.48236 39.4051 9.82244 39.7452C9.99204 39.9148 10.2147 40 10.4374 40C10.66 40 10.8827 39.9148 11.0523 39.7452L17.1406 33.6569C17.4806 33.3168 17.4806 32.7671 17.1406 32.4271C16.8005 32.087 16.2508 32.087 15.9107 32.4271Z" fill="white"/>
<path d="M0.87046 30.4327C1.09312 30.4327 1.31577 30.3475 1.48538 30.1779L7.57366 24.0896C7.91373 23.7495 7.91373 23.1999 7.57366 22.8598C7.23358 22.5197 6.6839 22.5197 6.34382 22.8598L0.255544 28.9481C-0.0845302 29.2881 -0.0845302 29.8378 0.255544 30.1779C0.425146 30.3475 0.647803 30.4327 0.87046 30.4327Z" fill="white"/>
</g>
<defs>
<clipPath id="clip0">
<rect width="40" height="40" fill="white"/>
</clipPath>
</defs>
</svg>
