<svg width="1920" height="211" viewBox="0 0 1920 211" fill="none" xmlns="http://www.w3.org/2000/svg">
<g clip-path="url(#clip0)">
<g clip-path="url(#clip1)">
<path d="M1767.99 0.754832C1767.99 0.708735 1767.98 0.664377 1767.97 0.61915C1767.95 0.569574 1767.93 0.524347 1767.91 0.47825C1767.9 0.453027 1767.89 0.426065 1767.88 0.401711C1767.87 0.386056 1767.85 0.375619 1767.84 0.360833C1767.81 0.320824 1767.78 0.286034 1767.74 0.250374C1767.71 0.214714 1767.67 0.181663 1767.63 0.152962C1767.61 0.142524 1767.61 0.127739 1767.59 0.119041C1767.57 0.104255 1767.54 0.100776 1767.51 0.0885997C1767.47 0.0651163 1767.42 0.0451119 1767.37 0.0303261C1767.33 0.0190193 1767.28 0.012931 1767.24 0.00771249C1767.19 0.0016242 1767.14 -0.00185482 1767.09 0.000754448C1767.04 0.00336371 1766.99 0.012931 1766.95 0.0242378C1766.92 0.0311959 1766.89 0.0285866 1766.86 0.0390237L1728.59 13.0853C1728.24 13.2019 1728.01 13.5246 1728 13.8907C1727.99 14.2569 1728.22 14.5883 1728.56 14.7196L1746.44 21.5898L1754.16 39.4754C1754.3 39.7946 1754.62 39.9999 1754.96 39.9999C1754.98 39.9999 1754.99 39.9999 1755.01 39.999C1755.37 39.9808 1755.68 39.7399 1755.79 39.3946L1767.97 1.12535C1767.98 1.09839 1767.97 1.07055 1767.98 1.04272C1767.99 0.994014 1768 0.947048 1768 0.897472C1768 0.848765 1768 0.802668 1767.99 0.754832ZM1731.42 13.956L1763.88 2.89095L1746.88 19.8938L1731.42 13.956ZM1754.84 36.6505L1748.12 21.1062L1765.23 4.00337L1754.84 36.6505Z" fill="white"/>
<path d="M1741.66 26.3388C1741.32 25.9987 1740.77 25.9987 1740.43 26.3388L1728.26 38.5153C1727.92 38.8554 1727.92 39.4051 1728.26 39.7452C1728.43 39.9148 1728.65 40 1728.87 40C1729.09 40 1729.32 39.9148 1729.49 39.7452L1741.66 27.5686C1742 27.2286 1742 26.6789 1741.66 26.3388Z" fill="white"/>
<path d="M1743.91 32.4271L1737.82 38.5153C1737.48 38.8554 1737.48 39.4051 1737.82 39.7452C1737.99 39.9148 1738.21 40 1738.44 40C1738.66 40 1738.88 39.9148 1739.05 39.7452L1745.14 33.6569C1745.48 33.3168 1745.48 32.7671 1745.14 32.4271C1744.8 32.087 1744.25 32.087 1743.91 32.4271Z" fill="white"/>
<path d="M1728.87 30.4327C1729.09 30.4327 1729.32 30.3475 1729.49 30.1779L1735.57 24.0896C1735.91 23.7495 1735.91 23.1999 1735.57 22.8598C1735.23 22.5197 1734.68 22.5197 1734.34 22.8598L1728.26 28.9481C1727.92 29.2881 1727.92 29.8378 1728.26 30.1779C1728.43 30.3475 1728.65 30.4327 1728.87 30.4327Z" fill="white"/>
</g>
<path opacity="0.3" d="M0 165.01C160.815 193.591 472.997 231.723 601.006 197.425C761.017 154.553 984.166 77.436 1198.16 96.5193C1507.69 124.123 1662.77 84.2328 1710 56" stroke="white" stroke-dasharray="4 2"/>
</g>
<defs>
<clipPath id="clip0">
<rect width="1920" height="211" fill="white"/>
</clipPath>
<clipPath id="clip1">
<rect width="40" height="40" fill="white" transform="translate(1728)"/>
</clipPath>
</defs>
</svg>
