<svg width="48" height="48" viewBox="0 0 48 48" fill="none" xmlns="http://www.w3.org/2000/svg">
<path d="M18.9383 33.638C18.757 33.638 18.5744 33.5757 18.4253 33.4488L13.2974 29.0823C13.1205 28.9315 13.0188 28.7113 13.0188 28.4787C13.0188 28.2465 13.121 28.0263 13.2974 27.8755L18.4253 23.509C18.7583 23.2251 19.2585 23.2654 19.5424 23.5984C19.8259 23.9318 19.7861 24.4319 19.4526 24.7154L15.0335 28.4787L19.4526 32.242C19.7861 32.5259 19.8259 33.026 19.5424 33.359C19.3854 33.5434 19.1625 33.638 18.9383 33.638Z" fill="white"/>
<path d="M29.0616 33.638C28.8374 33.638 28.6146 33.5434 28.458 33.359C28.1741 33.026 28.2144 32.5259 28.5473 32.242L32.9664 28.4787L28.5473 24.7154C28.2144 24.4319 28.1741 23.9318 28.458 23.5984C28.7415 23.2654 29.2421 23.2251 29.5746 23.509L34.7026 27.8755C34.8795 28.0263 34.9812 28.2465 34.9812 28.4787C34.9812 28.7113 34.8795 28.9315 34.7026 29.0823L29.5746 33.4488C29.4256 33.5757 29.243 33.638 29.0616 33.638Z" fill="white"/>
<path d="M22.1848 36.9125C22.1304 36.9125 22.0756 36.9067 22.0203 36.8952C21.5922 36.805 21.3181 36.3845 21.4083 35.9564L24.6042 20.7826C24.6944 20.3546 25.1145 20.0804 25.543 20.1706C25.9711 20.2608 26.2453 20.6809 26.1551 21.1094L22.9591 36.2832C22.8804 36.6565 22.5514 36.9125 22.1848 36.9125Z" fill="white"/>
<path d="M42.6792 45.1796H5.32076C2.38709 45.1796 0 42.7929 0 39.8588V8.15096C0 5.21729 2.38709 2.8302 5.32076 2.8302H42.6792C45.6129 2.8302 48 5.21729 48 8.15096V39.8588C48 42.7929 45.6129 45.1796 42.6792 45.1796ZM5.32076 4.41511C3.26091 4.41511 1.58491 6.09111 1.58491 8.15096V39.8588C1.58491 41.9186 3.26091 43.5947 5.32076 43.5947H42.6792C44.7391 43.5947 46.4151 41.9186 46.4151 39.8588V8.15096C46.4151 6.09111 44.7391 4.41511 42.6792 4.41511H5.32076Z" fill="white"/>
<path d="M47.2075 15.5196H0.792453C0.354658 15.5196 0 15.1649 0 14.7271C0 14.2898 0.354658 13.9347 0.792453 13.9347H47.2075C47.6453 13.9347 48 14.2898 48 14.7271C48 15.1649 47.6453 15.5196 47.2075 15.5196Z" fill="white"/>
<path d="M6.54004 11.7275C5.15767 11.7275 4.03223 10.6021 4.03223 9.21973C4.03223 7.83691 5.15767 6.71191 6.54004 6.71191C7.92285 6.71191 9.04785 7.83691 9.04785 9.21973C9.04785 10.6021 7.92285 11.7275 6.54004 11.7275ZM6.54004 8.29682C6.03149 8.29682 5.61713 8.71073 5.61713 9.21973C5.61713 9.72872 6.03149 10.1426 6.54004 10.1426C7.04903 10.1426 7.46295 9.72872 7.46295 9.21973C7.46295 8.71073 7.04903 8.29682 6.54004 8.29682Z" fill="white"/>
<path d="M14.2452 11.7515C12.8628 11.7515 11.7378 10.6265 11.7378 9.2437C11.7378 7.86133 12.8628 6.73633 14.2452 6.73633C15.628 6.73633 16.753 7.86133 16.753 9.2437C16.753 10.6265 15.628 11.7515 14.2452 11.7515ZM14.2452 8.32079C13.7366 8.32079 13.3227 8.73471 13.3227 9.2437C13.3227 9.75269 13.7366 10.1666 14.2452 10.1666C14.7542 10.1666 15.1681 9.75269 15.1681 9.2437C15.1681 8.73471 14.7542 8.32079 14.2452 8.32079Z" fill="white"/>
</svg>
