<svg width="48" height="48" viewBox="0 0 48 48" fill="none" xmlns="http://www.w3.org/2000/svg">
<g id="icon/black/gear">
<path id="Shape" fill-rule="evenodd" clip-rule="evenodd" d="M44.7961 18.8759H47.0882C47.5922 18.8759 47.9997 19.2833 47.9989 19.7866V28.2116C47.9989 28.7157 47.5914 29.123 47.0874 29.123H44.7953C44.1263 29.123 43.0136 30.1137 42.3081 31.7706C41.6045 33.4275 41.6646 34.9168 42.1313 35.3989L43.7244 37.0485C44.0735 37.4104 44.0635 37.9873 43.7017 38.3373L37.6427 44.1903C37.2827 44.5412 36.7039 44.5303 36.3548 44.1675L34.7572 42.5143C34.2303 41.9702 32.6983 41.9273 31.4497 42.4368C30.1446 42.9682 29.1238 44.0053 29.1238 44.7964V47.0886C29.1238 47.5927 28.7164 48 28.2124 48H19.7874C19.2833 48 18.8759 47.5925 18.8759 47.0886V44.7964C18.8759 44.0035 17.8533 42.9709 16.5473 42.445C15.2914 41.9392 13.7583 41.9803 13.238 42.5207L11.6476 44.1684C11.48 44.3433 11.2503 44.4427 11.0079 44.4473C10.7699 44.429 10.532 44.3598 10.3589 44.1921L4.2999 38.3391C4.12499 38.1715 4.02565 37.9408 4.02105 37.6993C4.01645 37.4568 4.10851 37.2236 4.27714 37.0494L5.86939 35.4017C6.33425 34.9205 6.39525 33.4321 5.69078 31.7743C4.9853 30.1165 3.87159 29.1248 3.20357 29.1248H0.911444C0.407341 29.1248 0 28.7174 0 28.2134V19.7884C0 19.2843 0.407453 18.877 0.911444 18.877H3.20457C3.8735 18.877 4.98631 17.8862 5.69179 16.2293C6.39536 14.5723 6.33526 13.0822 5.8695 12.6001L4.27725 10.9504C3.92821 10.5886 3.9373 10.0116 4.30001 9.66171L10.3589 3.8106C10.533 3.64376 10.7864 3.58097 11.0079 3.55541C11.2485 3.55989 11.479 3.66013 11.6476 3.83425L13.2435 5.4866C13.7675 6.03163 15.2996 6.07177 16.5491 5.56408C17.8533 5.03184 18.8758 3.9947 18.8758 3.20357V0.911444C18.8758 0.407341 19.2833 0 19.7873 0H28.2123C28.7164 0 29.1237 0.407453 29.1237 0.911444V3.20435C29.1237 3.99728 30.1463 5.02993 31.4523 5.55578C32.7091 6.06258 34.242 6.02244 34.7634 5.48201L36.3537 3.83425C36.5213 3.65934 36.7511 3.56 36.9935 3.55541C37.2223 3.54543 37.4683 3.64196 37.6425 3.8106L43.7016 9.66171C44.0634 10.0118 44.0734 10.5886 43.7243 10.9504L42.1321 12.6001C41.6663 13.0822 41.6053 14.5723 42.3089 16.2293C43.0144 17.8852 44.1272 18.8759 44.7961 18.8759ZM44.796 27.3008H46.1768V27.3007H46.1779V20.6986H44.7971C42.9032 20.6986 41.3712 18.6743 40.6339 16.9418C39.8965 15.2084 39.5046 12.6993 40.8216 11.334L41.7812 10.3397L37.0328 5.75536L36.0759 6.74697C35.4507 7.39415 34.4636 7.75047 33.2979 7.75047C32.465 7.75047 31.5919 7.57646 30.7725 7.24648C29.101 6.57296 27.3018 5.02085 27.3018 3.20357V1.82278H20.6997V3.20457C20.6997 5.01547 18.9052 6.57218 17.2383 7.25209C16.4208 7.58565 15.5486 7.76067 14.7146 7.76067C13.5471 7.76067 12.5591 7.40255 11.9321 6.75269L10.9696 5.75559L6.22123 10.3399L7.18089 11.3342C8.49777 12.6994 8.105 15.2085 7.36768 16.9421C6.63138 18.6746 5.09743 20.6988 3.20357 20.6988H1.82278V27.3009H3.20177C5.09563 27.3009 6.62857 29.3269 7.36589 31.0604C8.10321 32.7948 8.49609 35.3039 7.17909 36.6673L6.21944 37.6598L10.9678 42.246L11.9248 41.2544C12.5509 40.6072 13.5379 40.25 14.7054 40.25C15.5385 40.25 16.4098 40.425 17.2282 40.754C18.8987 41.4284 20.6978 42.9796 20.6978 44.7969V46.1777H27.2999V44.7969C27.2999 42.9841 29.0936 41.4284 30.7605 40.7494C31.5762 40.4158 32.4493 40.2399 33.2832 40.2399C34.4508 40.2399 35.4396 40.5971 36.0676 41.2479L37.0318 42.2459L41.7802 37.6597L40.8206 36.6663C39.5018 35.3002 39.8937 32.7911 40.6319 31.0576C41.3682 29.3251 42.9021 27.3008 44.796 27.3008ZM24 31C27.866 31 31 27.866 31 24C31 20.134 27.866 17 24 17C20.134 17 17 20.134 17 24C17 27.866 20.134 31 24 31ZM15 24C15 28.9706 19.0294 33 24 33C28.9706 33 33 28.9706 33 24C33 19.0294 28.9706 15 24 15C19.0294 15 15 19.0294 15 24Z" fill="white"/>
</g>
</svg>
