<svg width="64" height="48" viewBox="0 0 64 48" fill="none" xmlns="http://www.w3.org/2000/svg">
<g id="icon/black/speed">
<path id="Shape" fill-rule="evenodd" clip-rule="evenodd" d="M40.1679 1.33978C43.8361 2.40761 47.2672 4.08276 50.3657 6.31879C50.7892 6.62436 50.8809 7.21038 50.5708 7.62753C50.3845 7.87805 50.0958 8.01082 49.8032 8.01082C49.6083 8.01082 49.4115 7.95195 49.2423 7.82977C46.3211 5.72157 43.0867 4.14237 39.6289 3.13587C36.7528 2.29787 33.7565 1.87295 30.7227 1.87295C26.8704 1.87295 23.1092 2.55232 19.5435 3.89234C19.0534 4.07684 18.5039 3.83433 18.3168 3.35116C18.1296 2.86799 18.3756 2.32669 18.8661 2.14243C22.6491 0.720755 26.6382 0 30.7228 0C33.9391 0 37.1168 0.450779 40.1679 1.33978ZM53.5893 7.3514C53.8949 6.97107 54.4448 6.88362 54.8564 7.15003C55.268 7.41631 55.4049 7.94825 55.1719 8.376L34.9958 45.3992C34.9882 45.4134 34.9801 45.4274 34.9716 45.4411C34.9176 45.5291 34.6377 45.9805 34.4288 46.2391C33.6407 47.2145 32.5141 47.829 31.2568 47.9697C31.0752 47.9899 30.8937 48 30.7135 48C29.6468 48 28.619 47.6476 27.7721 46.9833C26.7822 46.2067 26.1585 45.0967 26.0157 43.8579C25.873 42.6191 26.2285 41.3995 27.0166 40.4242L53.5893 7.3514ZM32.9416 45.0724C33.0365 44.9548 33.2226 44.6694 33.3331 44.4909L48.4259 16.7958L28.5055 41.5891C28.0319 42.175 27.8191 42.9051 27.9045 43.6468C27.9899 44.3886 28.3634 45.0529 28.9561 45.518C29.5487 45.9829 30.2897 46.1926 31.0425 46.1086C31.7953 46.0245 32.4697 45.6564 32.9416 45.0724ZM55.9735 11.4316C55.6315 11.0392 55.0314 10.9945 54.6331 11.3314C54.2349 11.6684 54.1894 12.2598 54.5315 12.6521C59.2049 18.0121 61.8675 24.798 62.0844 31.8532H54.0337C53.5259 28.3333 52.38 24.9749 50.6223 21.8591C50.3673 21.4071 49.7885 21.2443 49.3298 21.4956C48.871 21.7469 48.7058 22.3172 48.9609 22.7692C50.7342 25.9122 51.8415 29.3191 52.2527 32.8952C52.307 33.3686 52.7135 33.7263 53.197 33.7263H63.0495C63.5744 33.7263 64 33.3069 64 32.7898C63.9999 24.953 61.1494 17.3678 55.9735 11.4316ZM45.1621 14.9054C42.6551 12.5503 39.7818 10.6643 36.6223 9.29985C32.8762 7.68148 28.8867 6.86096 24.7645 6.86096C18.096 6.86096 11.7455 9.06214 6.62791 12.982C9.36303 9.75445 12.7583 7.08081 16.623 5.16216C17.0918 4.92938 17.2804 4.36628 17.0441 3.90429C16.808 3.44243 16.2365 3.2567 15.7675 3.48935C8.72491 6.9861 3.15217 12.8463 0.0756822 19.9908C-0.115942 20.4357 0.0675572 20.9511 0.499181 21.1807C0.642306 21.2568 0.79718 21.2933 0.950055 21.2933C1.25843 21.2933 1.55918 21.1454 1.74118 20.8768C6.89416 13.2734 15.501 8.73404 24.7645 8.73404C28.6224 8.73404 32.3551 9.50147 35.859 11.0153C38.8152 12.2921 41.5038 14.0571 43.8502 16.2611C44.2302 16.618 44.8318 16.604 45.1941 16.2294C45.5563 15.8551 45.542 15.2623 45.1621 14.9054ZM29.7685 42.9184C30.0831 42.6649 30.5358 42.6388 30.8795 42.8515C31.2218 43.0635 31.3916 43.4838 31.2931 43.8698C31.188 44.2813 30.8018 44.5794 30.3707 44.5794C29.5001 44.5794 29.0927 43.4626 29.7685 42.9184Z" fill="white"/>
</g>
</svg>
